<?xml version="1.0" standalone="no"?>
<!DOCTYPE svg PUBLIC "-//W3C//DTD SVG 20010904//EN"
 "http://www.w3.org/TR/2001/REC-SVG-20010904/DTD/svg10.dtd">
<svg version="1.0" xmlns="http://www.w3.org/2000/svg"
 width="560.000000pt" height="560.000000pt" viewBox="0 0 560.000000 560.000000"
 preserveAspectRatio="xMidYMid meet">
<metadata>
Created by potrace 1.14, written by Peter Selinger 2001-2017
</metadata>
<g transform="translate(0.000000,560.000000) scale(0.100000,-0.100000)"
fill="#000000" stroke="none">
<path d="M2650 5593 c-214 -9 -492 -58 -668 -118 -41 -14 -78 -25 -83 -25 -6
0 -67 -23 -137 -51 -130 -52 -298 -136 -432 -217 -73 -44 -255 -174 -275 -196
-5 -6 -31 -27 -57 -46 -97 -72 -303 -294 -461 -495 -78 -100 -218 -350 -306
-548 -80 -178 -154 -428 -182 -612 -34 -224 -41 -304 -40 -485 0 -107 2 -204
4 -215 3 -11 8 -51 11 -90 10 -99 35 -249 52 -320 9 -33 20 -78 25 -100 12
-50 80 -251 109 -325 67 -169 199 -414 299 -553 74 -103 246 -312 278 -337 14
-11 23 -20 20 -20 -4 0 24 -28 61 -61 37 -34 88 -81 113 -104 54 -50 230 -182
290 -219 24 -15 53 -32 63 -39 245 -152 510 -264 792 -336 217 -55 561 -85
806 -70 156 9 261 24 443 64 44 9 89 22 100 28 10 5 26 11 35 12 46 5 273 76
278 88 2 4 15 7 28 7 13 0 24 4 24 9 0 5 14 11 32 15 17 3 64 22 104 41 40 19
77 35 83 35 6 0 11 3 11 8 0 4 21 16 46 26 26 10 69 34 96 52 28 19 52 34 55
34 9 0 148 94 151 102 2 4 9 8 15 8 7 0 28 15 47 33 20 17 43 37 52 42 115 73
322 278 478 472 69 86 72 90 122 168 18 28 36 52 40 53 5 2 8 8 8 12 0 5 25
50 54 99 54 89 124 228 153 306 8 22 21 54 28 70 40 94 104 303 119 390 3 17
15 76 26 130 31 154 43 336 37 570 -3 115 -8 228 -12 250 -23 157 -60 334 -76
366 -5 9 -11 31 -14 50 -6 38 -32 123 -46 154 -5 11 -21 54 -35 95 -26 74
-126 286 -181 385 -50 90 -196 302 -224 325 -3 3 -8 10 -10 16 -11 30 -220
252 -324 344 -160 141 -394 304 -530 369 -59 28 -73 36 -142 73 -29 15 -63 28
-77 28 -13 0 -29 7 -37 16 -8 10 -21 13 -37 9 -15 -4 -21 -2 -17 5 3 5 -2 13
-12 16 -10 3 -32 12 -49 20 -16 7 -41 11 -55 8 -19 -5 -21 -3 -9 5 13 9 11 11
-7 11 -12 0 -25 5 -28 10 -3 6 -14 10 -23 10 -9 0 -60 14 -112 31 -52 17 -113
33 -135 36 -22 2 -51 8 -65 13 -120 42 -454 73 -690 63z m310 -64 c25 -5 81
-16 125 -24 137 -25 308 -79 345 -108 l25 -20 -37 7 c-21 4 -38 3 -38 -2 0
-11 -48 -3 -56 9 -7 12 -34 11 -34 -1 0 -5 9 -10 19 -10 10 0 22 -7 25 -16 5
-13 16 -16 56 -12 35 4 53 1 61 -8 6 -8 18 -14 26 -14 8 0 11 -5 7 -12 -5 -8
-2 -9 11 -4 14 5 15 3 8 -6 -7 -8 -7 -22 -2 -36 7 -20 13 -22 43 -17 22 5 44
1 65 -9 41 -22 39 -29 -5 -23 -27 4 -41 0 -56 -15 -20 -20 -20 -45 0 -41 7 2
9 -4 5 -14 -4 -10 -2 -14 4 -10 6 4 19 4 30 0 16 -6 15 -8 -7 -13 -14 -4 -28
-2 -32 4 -12 17 -26 -11 -20 -40 3 -18 0 -24 -13 -24 -12 0 -16 6 -12 19 3 14
1 18 -9 14 -17 -6 -17 -17 1 -67 8 -22 12 -42 10 -45 -1 -3 12 -17 31 -31 19
-14 51 -37 71 -52 20 -16 42 -28 50 -28 8 0 12 -4 9 -8 -3 -5 9 -16 25 -26 23
-13 34 -15 42 -7 14 14 37 14 37 0 0 -5 -4 -8 -10 -4 -5 3 -18 -3 -30 -15 -23
-23 -41 -25 -58 -8 -8 8 -15 8 -25 0 -8 -7 -17 -8 -22 -4 -4 4 -3 -3 4 -15 16
-31 27 -35 45 -18 14 14 19 14 53 -4 40 -20 44 -21 68 -21 8 0 15 -4 15 -10 0
-5 -9 -10 -20 -10 -11 0 -20 -6 -21 -12 0 -10 -2 -10 -6 -1 -2 7 -20 15 -39
19 -18 3 -31 10 -28 15 3 5 1 9 -5 9 -5 0 -13 -5 -16 -10 -4 -7 -11 -8 -18 -2
-7 5 -27 13 -44 17 -28 5 -32 4 -27 -10 5 -13 1 -15 -20 -11 -18 3 -26 0 -26
-10 0 -8 -4 -12 -10 -9 -5 3 -10 1 -10 -6 0 -9 -3 -10 -11 -2 -15 15 -89 -22
-88 -45 0 -9 3 -12 5 -5 3 7 11 10 18 7 8 -3 16 1 19 9 3 9 28 16 67 20 56 6
65 4 94 -18 18 -14 44 -26 59 -27 14 -1 25 -7 24 -13 -1 -5 8 -10 21 -9 12 0
22 -5 22 -13 0 -7 5 -13 10 -13 6 0 10 -6 10 -14 0 -8 5 -18 10 -21 6 -4 9 -1
8 5 -2 7 5 14 15 15 9 2 15 -1 12 -5 -3 -5 5 -16 17 -25 19 -13 21 -17 8 -25
-16 -10 -15 -12 23 -28 21 -9 27 -9 27 1 0 7 -6 19 -12 26 -11 11 -10 12 1 6
8 -4 17 -2 23 6 8 11 9 10 4 -4 -5 -14 -1 -18 17 -15 13 2 21 -2 19 -9 -1 -7
6 -13 15 -13 14 0 15 -2 4 -9 -7 -5 -9 -11 -4 -14 17 -11 35 10 28 32 -5 17
-2 21 17 20 18 0 19 -2 6 -7 -14 -6 -15 -10 -3 -25 9 -12 15 -15 20 -7 5 8 12
5 22 -7 13 -16 14 -16 9 -1 -10 31 13 29 29 -3 9 -17 12 -29 7 -25 -11 6 -62
-15 -62 -26 0 -15 -19 -8 -22 9 -3 15 -4 15 -17 -1 -12 -15 -12 -17 0 -14 8 2
13 -3 11 -9 -1 -7 3 -13 9 -13 5 0 7 -4 4 -10 -3 -5 0 -10 8 -10 8 0 17 -9 20
-20 6 -24 -1 -25 -31 -4 -27 19 -29 4 -2 -21 16 -15 22 -15 35 -5 8 7 15 19
15 26 0 8 5 14 11 14 7 0 9 11 6 29 -5 24 -3 28 16 27 17 -1 21 4 19 19 -2 11
-1 17 4 13 4 -4 13 0 20 10 10 13 15 14 25 5 10 -10 9 -17 -7 -34 -19 -22 -19
-22 6 -15 25 7 25 7 -2 -11 -30 -19 -34 -28 -18 -38 17 -11 11 -33 -11 -40
-11 -4 -27 -22 -35 -41 -18 -42 -18 -49 1 -34 8 6 19 9 25 5 5 -3 13 1 16 9 7
18 34 22 34 6 0 -6 -6 -13 -14 -16 -17 -7 -40 -77 -33 -103 9 -38 -75 -65 -93
-30 -6 10 -17 19 -25 19 -7 0 -15 5 -17 11 -3 9 -9 9 -25 0 -19 -9 -25 -8 -42
10 -11 12 -25 18 -31 14 -6 -4 -22 1 -35 9 -23 15 -30 13 -26 -7 1 -5 -3 -5
-9 -2 -6 4 -9 14 -6 22 3 8 1 11 -5 8 -15 -10 -7 -47 14 -68 15 -15 16 -21 6
-33 -9 -12 -9 -13 2 -9 8 3 26 -5 39 -17 14 -13 27 -22 30 -21 6 2 51 -8 63
-14 19 -11 -6 -21 -33 -13 -19 6 -32 5 -36 -2 -4 -6 -2 -8 4 -4 6 3 18 -4 26
-16 17 -24 6 -40 -23 -31 -12 3 -11 0 3 -11 19 -16 19 -16 -1 -16 -12 0 -24 4
-28 10 -3 6 -15 6 -29 0 -15 -5 -27 -5 -34 2 -11 11 -52 2 -52 -12 0 -4 -10
-6 -22 -4 -13 2 -17 2 -10 -2 6 -3 10 -10 6 -15 -3 -5 7 -10 23 -10 17 -1 21
-3 11 -6 -10 -2 -18 -9 -18 -14 0 -9 20 -13 53 -10 12 2 17 -5 17 -25 0 -22 3
-24 14 -15 10 8 16 9 21 1 3 -6 11 -8 16 -5 5 4 9 -1 9 -10 0 -12 4 -14 19 -6
10 6 21 8 23 5 3 -2 33 3 67 11 33 9 65 14 70 11 5 -3 12 1 15 10 4 9 9 14 12
11 4 -3 15 3 27 13 20 19 21 19 35 -1 19 -28 57 -22 58 9 1 13 -5 26 -12 29
-8 3 -14 11 -14 18 0 8 -6 20 -14 27 -7 8 -17 25 -20 38 -15 52 -29 80 -37 74
-5 -3 -9 0 -9 5 0 19 28 12 35 -9 4 -11 10 -18 15 -15 5 3 13 -7 18 -22 6 -16
11 -22 11 -14 1 11 7 8 22 -7 11 -12 24 -20 30 -17 5 4 9 1 9 -5 0 -19 48 23
55 48 3 12 12 22 19 22 8 0 17 11 20 24 7 27 56 65 56 44 0 -9 3 -8 10 2 8 12
10 12 10 1 0 -11 5 -10 25 3 27 18 39 21 31 7 -3 -5 1 -14 9 -21 8 -7 15 -8
15 -3 0 5 7 10 15 10 22 0 18 -25 -6 -37 -11 -7 -18 -14 -15 -17 3 -3 12 0 21
7 12 10 16 9 21 -4 4 -11 13 -15 25 -11 17 6 18 3 10 -18 -6 -14 -7 -28 -3
-31 13 -14 9 -76 -5 -76 -8 0 -16 -7 -19 -15 -4 -8 -15 -15 -25 -15 -14 0 -19
-7 -19 -30 0 -29 -3 -32 -44 -34 -14 -1 -23 -14 -34 -54 -8 -29 -11 -56 -7
-60 4 -4 10 -1 12 6 5 13 23 7 23 -9 0 -6 -4 -8 -9 -5 -14 9 -20 -18 -14 -73
4 -42 2 -51 -11 -51 -9 0 -16 5 -16 11 0 5 4 8 9 5 5 -4 7 3 4 14 -4 15 -9 17
-23 10 -9 -5 -21 -6 -25 -2 -5 4 -5 -1 -2 -11 4 -10 7 -23 7 -28 0 -6 4 -8 9
-5 18 11 42 -6 36 -25 -4 -11 -2 -19 4 -19 6 0 11 6 12 13 0 6 7 -6 15 -28 8
-22 21 -43 29 -48 8 -4 15 -15 15 -22 0 -8 5 -15 10 -15 6 0 10 -10 10 -22 l0
-22 -16 22 c-12 17 -19 20 -33 12 -10 -5 -21 -6 -25 -3 -3 3 -6 1 -6 -5 0 -6
5 -14 12 -18 7 -5 4 -10 -11 -16 -12 -4 -19 -13 -16 -18 5 -8 11 -7 21 1 12
10 13 9 8 -5 -4 -10 0 -18 10 -22 22 -9 20 -21 -5 -27 -14 -4 -20 -11 -16 -21
4 -11 1 -13 -11 -9 -14 6 -15 5 -2 -9 9 -10 19 -13 25 -7 5 5 16 9 24 9 8 0
23 8 34 18 11 9 18 13 16 7 -24 -52 -33 -63 -45 -58 -8 3 -14 1 -14 -4 0 -13
-39 -53 -51 -53 -5 0 -2 11 7 25 19 29 11 44 -14 29 -11 -7 -27 -8 -42 -3 -23
8 -23 8 -7 -5 14 -10 15 -15 5 -19 -8 -4 -9 -8 -3 -14 15 -12 17 -50 4 -74 -9
-18 -8 -24 6 -32 61 -34 130 -127 95 -127 -14 0 -12 -28 3 -33 9 -3 9 -7 -1
-20 -20 -24 -45 -10 -37 21 5 21 3 24 -14 19 -22 -5 -30 16 -10 29 20 12 -9
28 -46 26 -22 -2 -37 2 -40 11 -9 21 -45 19 -45 -4 0 -10 -5 -19 -11 -19 -7 0
-9 10 -5 25 8 30 5 31 -23 6 -20 -18 -36 -19 -86 -7 -11 2 -23 5 -27 5 -5 1
-8 6 -8 12 0 8 5 8 15 -1 12 -10 15 -10 15 4 0 9 -4 16 -9 16 -5 0 -13 9 -16
20 -13 41 -71 7 -62 -37 3 -18 1 -23 -9 -19 -8 3 -14 -1 -14 -8 0 -18 29 -14
41 5 7 12 9 12 9 -1 0 -11 2 -12 8 -3 5 8 8 -1 8 -22 0 -21 -3 -30 -8 -22 -6
9 -8 8 -8 -3 0 -8 -7 -24 -15 -34 -12 -16 -17 -17 -30 -6 -10 8 -15 9 -15 1 0
-19 -18 -12 -25 9 -7 21 -22 22 -42 3 -20 -18 -15 -26 12 -19 14 4 25 2 25 -4
0 -5 -3 -9 -7 -8 -5 1 -18 -3 -30 -10 -19 -11 -23 -10 -23 2 0 18 -12 26 -45
32 -18 3 -25 0 -25 -11 0 -8 -4 -15 -10 -15 -5 0 -7 7 -4 15 4 9 0 15 -9 15
-15 0 -30 34 -19 44 3 3 13 6 22 6 10 0 22 6 28 13 8 10 6 13 -8 13 -10 0 -16
-4 -14 -8 3 -4 -2 -5 -10 -2 -9 3 -13 11 -9 17 3 5 -2 16 -12 23 -10 7 -15 20
-12 28 3 8 3 16 -1 18 -11 5 -42 65 -42 82 0 19 -28 20 -53 2 -12 -9 -32 -12
-57 -9 -21 3 -47 2 -57 -2 -10 -5 -28 -10 -40 -11 -32 -4 -63 -23 -63 -38 0
-15 -37 -50 -63 -59 -11 -4 -15 -12 -11 -18 4 -7 3 -9 -3 -6 -6 4 -21 -5 -33
-18 -20 -21 -21 -25 -7 -25 28 0 19 -18 -13 -25 -34 -7 -110 -71 -110 -92 0
-9 -13 -13 -41 -13 -23 0 -47 -7 -55 -15 -9 -8 -13 -15 -9 -15 3 0 -2 -11 -10
-24 -12 -18 -14 -37 -9 -78 9 -75 7 -98 -16 -143 -15 -30 -17 -41 -7 -47 8 -5
0 -10 -22 -14 -33 -7 -33 -8 -11 -16 16 -6 26 -5 32 4 6 10 8 8 8 -4 0 -10 -6
-18 -13 -18 -7 0 -19 -16 -27 -35 -7 -19 -22 -37 -32 -41 -10 -3 -21 -17 -25
-32 -8 -32 -31 -52 -53 -45 -10 3 -10 1 3 -7 9 -6 17 -19 17 -28 0 -13 -2 -14
-9 -4 -10 16 -111 22 -111 6 0 -13 28 -39 53 -47 9 -4 17 -13 17 -22 0 -8 5
-15 10 -15 6 0 10 4 10 10 0 5 7 6 17 3 11 -4 14 -3 9 5 -9 15 9 15 34 2 16
-9 18 -8 13 6 -3 9 0 20 8 25 12 8 12 10 -1 8 -29 -3 -41 1 -35 11 4 6 11 8
16 4 6 -3 17 -3 27 1 14 5 14 7 2 16 -11 7 -2 9 33 7 26 -2 47 1 47 5 0 5 4 6
9 3 5 -4 7 3 4 13 -5 19 15 67 24 58 3 -3 7 -23 10 -44 3 -21 11 -48 19 -60
22 -34 17 -51 -17 -58 -22 -5 -28 -10 -19 -15 7 -5 20 -6 28 -2 9 3 13 1 9 -5
-4 -6 -1 -13 6 -15 19 -8 87 3 87 14 0 5 4 7 9 4 4 -3 23 -1 42 4 27 8 36 7
45 -5 9 -12 13 -12 33 1 27 20 30 17 33 -29 3 -40 7 -44 26 -25 8 8 8 15 1 24
-6 7 -8 18 -5 23 7 10 37 4 46 -10 8 -11 90 -13 138 -4 39 7 43 10 38 31 -5
17 -2 24 9 24 8 0 15 -4 15 -10 0 -5 7 -10 16 -10 10 0 14 6 11 14 -3 8 4 21
18 30 23 15 23 15 18 -23 -3 -23 -1 -41 6 -45 6 -4 11 -2 11 3 0 6 5 11 11 11
5 0 8 -3 6 -7 -3 -5 0 -13 7 -19 17 -16 60 2 52 21 -4 11 2 15 19 15 35 0 40
-3 37 -20 -1 -9 10 -20 27 -27 34 -12 48 -6 24 12 -13 9 -13 14 -3 20 9 5 11
4 6 -3 -4 -7 -1 -12 8 -12 15 0 20 -18 17 -60 0 -10 1 -11 5 -2 3 6 10 10 15
6 5 -3 9 -1 9 5 0 5 -6 12 -12 15 -10 5 -10 7 0 12 18 8 15 45 -5 60 -10 7
-30 14 -45 14 -20 0 -28 5 -28 18 0 9 -9 23 -20 30 -12 7 -18 17 -15 22 3 5 1
12 -5 15 -6 4 -10 3 -9 -2 1 -4 0 -21 -1 -38 -2 -30 -2 -30 -12 8 -6 20 -15
38 -21 38 -7 1 -19 3 -27 3 -8 1 -34 5 -57 10 -36 6 -46 4 -64 -13 -24 -23
-39 -20 -20 3 9 11 9 16 -1 22 -8 5 -3 12 17 20 26 11 27 13 8 14 -13 0 -46
-13 -75 -28 -50 -27 -95 -44 -128 -47 -8 -1 -25 -5 -37 -9 -14 -5 -23 -3 -23
3 0 6 5 11 12 11 9 0 9 3 1 11 -9 9 -9 15 0 23 16 16 110 46 166 53 25 3 62
11 81 17 42 15 71 10 63 -10 -3 -9 2 -14 15 -14 20 0 21 3 12 45 -1 6 -1 15 0
20 6 25 8 31 15 53 4 12 11 22 16 22 13 0 11 38 -2 46 -7 4 -7 10 -1 16 6 6 6
24 1 46 -8 36 -7 37 10 16 23 -28 58 -39 77 -23 12 10 12 14 2 20 -11 7 -11
12 0 29 10 17 10 20 -3 20 -8 0 -15 -9 -15 -19 0 -26 -20 -31 -48 -13 -17 11
-20 18 -11 28 6 8 8 14 4 14 -4 0 -2 7 5 15 11 13 10 18 -5 29 -13 9 -15 15
-7 20 7 4 12 19 12 33 0 14 10 34 22 44 25 22 30 23 46 7 10 -10 17 -10 35 1
21 13 22 13 5 -6 -17 -18 -26 -45 -11 -30 3 4 11 0 17 -8 6 -8 30 -18 54 -24
34 -7 42 -6 42 5 0 8 7 14 15 14 8 0 15 4 15 8 0 5 21 7 47 5 37 -4 50 -1 60
13 12 17 13 16 13 -3 0 -12 -4 -25 -10 -28 -6 -3 -10 -24 -10 -45 0 -21 -5
-40 -10 -42 -7 -2 -7 -19 -2 -50 7 -33 5 -63 -5 -103 -15 -60 -7 -90 23 -78 8
3 14 -1 14 -11 0 -17 -38 -42 -57 -38 -7 2 -13 -7 -13 -18 0 -13 -8 -24 -19
-27 -15 -4 -17 -10 -12 -31 4 -15 13 -27 20 -27 15 0 50 -45 51 -64 0 -8 6
-11 18 -6 20 8 21 8 43 6 9 0 19 -10 22 -21 4 -15 0 -20 -16 -21 -12 0 -16 -3
-9 -6 6 -2 12 -17 12 -31 -1 -20 -12 -36 -45 -61 -25 -18 -45 -40 -45 -47 0
-16 -2 -16 -24 -8 -9 3 -16 13 -16 22 0 12 -3 13 -12 4 -8 -8 -18 -6 -40 9
l-28 20 10 -26 c6 -15 8 -31 4 -36 -3 -5 2 -9 10 -9 9 0 16 4 16 8 0 4 9 8 20
9 11 1 20 -2 20 -8 0 -5 -7 -9 -16 -9 -19 0 -75 -45 -67 -54 11 -11 34 -6 27
6 -5 8 2 9 24 5 18 -4 31 -3 31 1 -4 22 3 32 22 32 15 0 19 -5 15 -15 -3 -9 0
-15 10 -15 11 0 12 -5 6 -17 -5 -10 -6 -27 -2 -38 7 -20 3 -28 -37 -71 -12
-13 -18 -24 -12 -24 5 0 2 -11 -6 -24 -14 -20 -22 -24 -50 -19 -37 6 -60 -9
-60 -41 0 -11 -8 -20 -18 -22 -36 -5 -48 -14 -45 -33 2 -11 -6 -26 -16 -34
-19 -14 -19 -16 -4 -40 13 -19 23 -23 45 -19 33 5 22 -12 -14 -23 -17 -4 -23
-2 -23 9 0 19 -52 15 -58 -5 -3 -11 -1 -10 7 1 9 13 11 12 11 -3 0 -14 -5 -17
-20 -12 -19 6 -25 -3 -21 -28 1 -5 -3 -6 -8 -3 -5 3 -12 -2 -15 -11 -5 -13 -9
-14 -19 -4 -9 10 -9 15 4 24 35 27 29 68 -9 51 -37 -16 -71 -13 -77 7 -4 10
-11 19 -16 19 -5 0 -8 3 -6 8 1 4 -2 8 -8 9 -5 1 -9 -7 -8 -17 3 -21 -27 -36
-37 -20 -5 8 -9 6 -13 -4 -4 -9 -16 -16 -27 -16 -12 0 -18 -5 -15 -10 3 -6 -1
-10 -9 -10 -9 0 -16 -4 -16 -10 0 -5 -4 -10 -10 -10 -5 0 -7 7 -4 14 5 13 2
13 -19 3 -16 -7 -21 -14 -14 -19 6 -3 -5 -9 -25 -13 -57 -11 -97 -11 -97 0 0
6 9 9 19 8 22 -3 46 22 30 32 -5 3 -16 3 -22 -2 -7 -4 -22 -9 -32 -10 -25 -4
-47 -23 -41 -33 3 -5 1 -11 -5 -15 -5 -3 -10 -1 -10 5 0 6 -5 8 -10 5 -6 -4
-9 -3 -8 2 4 11 -13 14 -36 7 -14 -5 -15 -8 -6 -14 7 -4 14 -23 16 -42 3 -32
1 -35 -22 -30 -14 2 -24 0 -24 -7 0 -7 -4 -10 -9 -7 -5 4 -7 -3 -4 -14 3 -12
0 -20 -6 -20 -7 0 -10 4 -6 9 3 6 -6 9 -19 8 -31 -2 -32 -11 -7 -36 14 -14 21
-16 25 -8 2 7 5 2 5 -11 1 -13 8 -31 17 -40 18 -17 89 -28 79 -12 -4 6 -1 10
4 10 6 0 11 7 11 16 0 14 -2 15 -17 3 -11 -10 -14 -10 -9 -1 4 6 2 12 -3 12
-6 0 -11 4 -11 10 0 5 7 7 17 3 14 -5 15 -1 10 33 -5 35 -5 37 7 16 6 -12 15
-19 20 -15 4 4 3 -4 -3 -19 -8 -20 -7 -29 5 -38 11 -10 14 -9 14 9 0 11 5 21
10 21 7 0 7 8 -1 22 -10 18 -8 24 7 35 10 7 21 13 26 13 4 0 8 8 8 18 0 14 2
15 10 2 7 -11 10 -12 10 -2 0 8 8 12 18 10 9 -2 25 6 34 17 15 17 19 18 28 5
9 -12 10 -11 6 6 -5 15 0 24 19 34 34 18 42 7 15 -20 -14 -14 -18 -25 -12 -29
15 -9 -24 -54 -40 -46 -7 4 -5 0 6 -9 10 -8 15 -20 11 -26 -5 -8 -11 -6 -19 6
-7 9 -16 13 -19 8 -3 -6 3 -15 13 -22 12 -7 21 -8 25 -2 10 16 22 11 28 -10 4
-17 11 -19 31 -14 34 8 59 -14 38 -35 -13 -13 -11 -16 13 -24 18 -6 23 -12 15
-17 -9 -6 -7 -16 10 -38 13 -17 27 -29 31 -26 4 2 10 0 13 -5 8 -13 62 3 59
18 -2 6 8 11 21 11 12 0 44 11 70 25 56 30 70 32 37 5 -13 -11 -19 -20 -14
-20 5 0 14 5 20 11 6 6 16 8 22 4 8 -4 6 -11 -4 -21 -8 -9 -15 -21 -15 -27 1
-20 28 -49 39 -43 5 4 13 0 18 -8 7 -12 12 -12 33 -1 14 8 19 14 12 15 -18 0
-4 20 15 20 8 0 17 -9 20 -20 3 -11 12 -20 19 -20 8 0 14 -5 14 -11 0 -6 27
-37 60 -69 33 -32 60 -63 60 -68 0 -5 12 -18 27 -27 l27 -18 -22 -8 c-12 -5
-25 -15 -28 -22 -7 -18 -54 -10 -71 11 -7 9 -13 12 -13 8 0 -5 -11 -1 -25 8
-17 11 -24 13 -23 4 2 -8 -7 -12 -24 -12 -16 1 -28 -3 -28 -8 0 -5 -4 -6 -10
-3 -5 3 -10 -1 -10 -10 0 -9 -5 -13 -10 -10 -6 4 -10 12 -9 18 4 32 -1 37 -20
25 -17 -10 -23 -9 -40 6 -12 11 -21 30 -21 43 0 22 -2 23 -27 10 -16 -7 -45
-12 -65 -11 -21 0 -35 -2 -33 -6 6 -9 -74 -5 -97 5 -10 4 -18 18 -18 30 0 13
-5 27 -12 31 -8 5 -9 2 -5 -10 6 -14 3 -16 -14 -11 -15 5 -19 4 -15 -4 9 -14
0 -14 -24 1 -17 11 -22 10 -30 -2 -9 -13 -11 -13 -20 0 -6 9 -10 10 -10 3 0
-8 -9 -9 -35 -2 -19 6 -41 7 -48 3 -6 -4 -9 -4 -5 1 9 10 -9 45 -23 45 -6 0
-9 -7 -5 -15 3 -8 1 -15 -4 -15 -6 0 -10 9 -10 20 0 29 -27 25 -32 -5 -3 -14
-1 -25 3 -25 5 0 9 -5 9 -11 0 -6 7 -17 15 -26 12 -12 19 -13 30 -3 15 12 37
3 57 -25 5 -6 8 -5 8 4 0 9 6 11 18 6 9 -4 26 -8 37 -10 11 -1 21 -10 22 -21
2 -10 0 -13 -3 -6 -3 6 -15 12 -25 12 -11 0 -17 -4 -14 -10 6 -10 -2 -9 -40 6
-26 10 -24 9 -72 18 -24 4 -43 12 -43 17 0 5 -5 9 -11 9 -5 0 -7 -4 -4 -10 9
-15 -43 -24 -60 -10 -10 8 -15 9 -15 2 0 -13 -40 -7 -54 9 -8 9 -7 10 4 4 8
-5 12 -4 7 0 -12 14 -49 17 -41 3 5 -7 3 -8 -5 -3 -7 4 -11 16 -8 26 3 11 1
17 -4 13 -5 -3 -9 0 -9 5 0 6 6 11 13 11 9 0 8 3 -2 9 -19 12 -1 20 36 15 25
-3 31 0 27 11 -4 8 -12 15 -19 15 -11 0 -45 41 -45 54 0 3 12 -2 28 -9 15 -8
28 -11 30 -6 3 10 41 3 60 -12 10 -8 16 -7 23 4 12 19 11 32 -1 24 -5 -3 -10
3 -10 14 0 27 -17 36 -37 19 -14 -11 -15 -11 -9 0 5 8 1 22 -11 35 -10 12 -25
31 -33 42 -12 17 -12 18 0 7 18 -16 30 -15 30 2 0 7 -11 21 -25 30 -23 15 -25
15 -25 1 0 -9 -7 -23 -15 -31 -13 -14 -15 -12 -15 15 0 16 5 33 10 36 15 9 2
25 -21 25 -10 0 -19 5 -19 11 0 5 5 7 10 4 6 -3 10 -1 10 4 0 6 -7 11 -15 11
-8 0 -15 -6 -15 -13 0 -18 -28 -17 -35 1 -3 9 -11 11 -23 7 -9 -4 -30 -7 -47
-6 -25 1 -27 -1 -12 -10 9 -5 17 -19 17 -29 0 -11 4 -20 9 -20 5 0 7 9 4 19
-4 15 -1 19 14 15 13 -4 18 -14 18 -39 0 -18 -4 -31 -8 -28 -5 3 -6 11 -3 19
4 11 0 13 -19 8 -20 -5 -25 -2 -30 19 -9 36 -40 60 -79 63 -18 2 -37 4 -42 5
-36 6 -47 -26 -19 -55 9 -9 11 -17 5 -21 -5 -3 -10 -1 -10 5 0 7 -7 10 -15 7
-8 -4 -17 -2 -20 3 -4 6 -11 10 -16 10 -14 0 0 -43 17 -53 8 -4 14 -15 14 -24
0 -15 -2 -15 -12 -2 -7 8 -24 23 -37 34 -22 18 -24 18 -18 3 8 -22 -1 -23 -25
-1 -17 15 -18 15 -18 0 0 -10 5 -17 12 -17 9 0 9 -3 1 -11 -12 -12 -53 -3 -53
12 0 5 4 9 9 9 15 0 7 33 -12 53 -11 11 -25 16 -38 12 -23 -8 -24 -23 -3 -46
14 -16 13 -17 -9 -15 -19 1 -24 6 -23 26 1 14 -3 26 -8 27 -10 2 -26 24 -26
37 0 5 15 6 33 2 28 -5 30 -4 14 8 -16 12 -15 13 8 14 13 0 22 -4 19 -9 -3 -5
-3 -13 1 -19 8 -13 46 21 38 34 -4 7 -1 7 6 0 16 -15 51 -6 51 12 0 17 46 19
56 3 8 -14 117 -4 122 11 6 16 52 12 52 -5 0 -12 7 -14 28 -9 33 7 94 36 105
49 4 6 7 2 5 -9 -2 -14 4 -20 25 -23 18 -2 27 1 27 10 0 8 23 26 50 41 28 15
50 34 50 42 0 8 5 14 11 14 5 0 7 -5 4 -10 -3 -5 -1 -10 4 -10 6 0 11 5 11 12
0 6 3 8 7 5 8 -9 34 13 28 24 -3 4 10 19 30 32 19 13 32 27 29 30 -11 11 16
35 47 42 32 7 32 7 23 29 -7 18 -34 22 -34 5 0 -6 -9 -9 -20 -6 -13 3 -21 -1
-25 -13 -6 -20 -45 -34 -87 -32 -18 0 -28 -5 -28 -14 0 -8 -9 -14 -20 -14 -11
0 -30 -11 -42 -25 -27 -31 -59 -34 -53 -5 6 29 15 41 26 35 5 -4 9 5 9 19 0
30 -11 32 -44 10 -16 -10 -26 -12 -31 -4 -3 6 -11 8 -16 4 -12 -7 -40 27 -33
38 3 4 -2 5 -10 2 -9 -3 -16 -10 -16 -15 0 -6 -8 -5 -19 1 -20 10 -48 10 -67
-2 -12 -8 -36 -5 -68 8 -15 6 -18 4 -13 -8 4 -13 -3 -15 -45 -14 -31 1 -53 6
-56 14 -3 9 2 10 20 4 44 -17 65 9 31 38 -20 17 -67 24 -58 9 4 -5 2 -9 -2 -9
-11 0 -36 41 -29 48 3 3 6 0 6 -6 0 -7 11 -11 25 -10 14 1 25 6 25 10 0 4 9 5
20 3 13 -3 20 2 20 12 0 10 6 13 16 9 21 -8 54 2 54 16 0 6 -15 7 -40 3 -47
-8 -150 12 -167 33 -10 13 -14 12 -29 -3 -17 -16 -17 -18 -1 -30 10 -7 13 -15
7 -21 -7 -7 -5 -17 4 -29 11 -16 16 -17 29 -7 13 11 15 10 10 -10 -3 -13 -3
-20 2 -16 9 8 35 -15 35 -31 0 -6 -2 -11 -4 -11 -2 0 -11 -2 -19 -5 -8 -4 -14
0 -14 10 0 9 6 14 14 11 8 -3 11 -1 8 4 -3 6 -15 10 -26 10 -11 0 -18 4 -15 9
8 13 -35 0 -53 -16 -9 -7 -20 -14 -26 -14 -5 0 -16 -6 -24 -12 -12 -10 -12 -9
-2 11 11 20 8 26 -11 23 -8 -1 -12 16 -8 34 1 5 -8 1 -19 -9 -22 -20 -30 -9
-8 13 10 10 6 11 -18 7 -16 -2 -32 -5 -35 -6 -13 -5 -56 3 -61 12 -4 7 -9 6
-13 -1 -4 -6 -2 -11 4 -11 6 0 8 -5 5 -10 -4 -6 -12 -7 -18 -3 -7 5 -30 8 -52
8 -31 0 -40 4 -43 19 -4 17 -2 17 18 3 20 -14 60 -13 60 2 0 12 -44 46 -60 46
-17 0 -41 -35 -33 -49 4 -5 -5 -6 -20 -2 -32 8 -67 -11 -60 -33 4 -13 3 -13
-5 -3 -7 11 -10 9 -15 -7 -6 -26 -3 -26 39 0 19 11 39 17 45 13 8 -5 7 -9 -4
-15 -9 -5 -15 -23 -15 -41 0 -18 -2 -40 -4 -48 -2 -9 4 -15 17 -15 11 0 23 -5
28 -12 12 -19 66 -26 83 -12 16 13 32 17 89 20 17 1 35 9 41 17 6 9 19 17 29
18 13 2 9 -6 -15 -27 -22 -20 -39 -28 -54 -24 -11 2 -16 2 -9 -1 16 -7 5 -34
-18 -42 -15 -6 -13 -10 18 -30 19 -13 33 -19 29 -14 -3 5 6 15 19 22 21 11 27
11 43 -3 21 -19 39 -22 44 -7 2 5 12 11 23 13 11 1 26 6 33 10 6 5 12 4 12 -2
0 -9 -20 -21 -87 -55 -13 -6 -23 -14 -23 -18 0 -5 -7 -8 -15 -8 -8 0 -15 5
-15 10 0 15 -40 12 -41 -2 0 -10 -2 -10 -6 0 -2 6 -9 9 -14 6 -6 -3 -17 0 -26
8 -12 9 -15 9 -9 1 7 -13 -9 -17 -48 -13 -11 1 -15 -3 -12 -9 4 -6 2 -11 -3
-11 -6 0 -11 8 -11 18 0 14 -2 14 -9 3 -8 -12 -15 -13 -33 -4 -20 9 -27 7 -46
-14 -23 -26 -44 -25 -23 1 15 18 -6 28 -32 14 -12 -6 -30 -6 -50 1 -23 9 -33
8 -39 -1 -5 -8 -8 0 -8 21 0 33 0 34 -20 16 -11 -10 -20 -25 -20 -34 0 -14 -2
-14 -10 -1 -5 8 -10 11 -10 6 0 -5 -9 -1 -20 9 -17 15 -20 16 -20 3 0 -9 -7
-21 -15 -28 -12 -10 -16 -9 -21 5 -4 9 -3 20 2 24 16 11 16 41 -1 41 -8 0 -15
4 -15 10 0 5 -7 7 -15 4 -8 -4 -16 -1 -16 5 -2 20 -5 26 -16 47 -7 11 -10 32
-7 45 4 17 3 20 -4 10 -11 -16 -32 -6 -32 15 0 17 -5 17 -30 4 -13 -7 -19 -6
-24 6 -5 12 -10 13 -27 3 -21 -11 -21 -10 -5 12 19 28 21 49 3 49 -20 0 -87
37 -80 44 4 3 1 6 -5 6 -7 0 -12 9 -12 20 0 11 -9 29 -21 41 -16 16 -18 24
-10 32 7 7 17 12 23 12 14 0 16 44 3 64 -5 9 -4 12 3 7 6 -3 16 3 22 14 6 11
16 20 23 20 8 0 7 -4 -3 -10 -8 -5 -12 -11 -9 -14 15 -16 177 -24 217 -12 22
7 32 36 12 36 -17 0 -11 18 9 25 10 3 36 8 57 10 22 3 55 8 74 12 19 3 38 7
42 7 16 2 19 16 4 22 -25 9 -9 24 27 24 l32 0 -27 23 c-29 23 -27 38 7 51 15
7 17 10 5 14 -8 3 -23 14 -35 25 l-20 20 25 -7 c14 -4 35 -10 47 -13 23 -5 40
-33 20 -33 -20 0 36 -26 71 -33 39 -8 42 0 5 14 l-28 11 48 14 c55 17 61 39
15 54 l-33 10 35 -4 c34 -4 36 -2 38 27 2 17 9 44 17 61 19 36 20 33 -10 40
-22 6 -24 9 -12 20 7 7 22 16 34 20 18 6 22 16 25 69 4 68 -4 97 -29 97 -14 0
-14 2 3 14 18 14 18 15 1 21 -9 4 -28 5 -41 3 -19 -4 -24 -1 -23 14 1 10 9 18
19 18 20 0 24 15 7 26 -8 5 -8 9 1 14 8 5 3 10 -14 14 -23 6 -25 9 -14 26 9
13 19 18 33 14 16 -4 17 -3 5 5 -8 6 -32 8 -54 4 -32 -5 -38 -3 -34 9 5 11 -2
14 -28 11 -19 -1 -39 -5 -44 -8 -16 -10 -11 31 5 45 8 7 22 9 31 6 9 -4 23 -1
30 5 10 8 18 8 27 1 7 -6 21 -6 35 -1 26 10 29 18 5 18 -10 0 -42 2 -70 5 -32
3 -53 2 -53 -4 0 -6 -7 -10 -15 -10 -8 0 -15 7 -15 15 0 13 15 15 95 14 87 -2
95 -4 89 -21 -4 -14 0 -17 20 -16 28 3 35 25 11 34 -17 7 -21 34 -5 34 6 0 10
-7 10 -16 0 -8 5 -12 10 -9 6 4 8 11 5 16 -4 5 4 9 16 9 18 0 19 -2 9 -15 -7
-8 -9 -15 -6 -15 4 0 14 7 22 15 9 9 11 15 4 15 -6 0 -9 4 -6 9 3 4 -3 16 -13
25 -15 13 -20 14 -23 4 -4 -11 -8 -10 -21 1 -22 17 -22 7 -1 -14 9 -9 14 -18
11 -21 -3 -3 -20 9 -38 27 l-33 32 -17 -22 c-22 -27 -33 -27 -47 4 -7 15 -17
22 -26 19 -8 -3 -17 0 -21 5 -3 6 -11 9 -16 5 -5 -3 -16 0 -24 6 -8 7 -21 10
-30 7 -8 -4 -17 -2 -20 3 -3 5 -12 7 -19 4 -16 -6 -29 35 -16 51 6 7 7 14 4
18 -3 3 4 8 15 12 12 3 21 11 21 16 0 5 5 9 11 9 6 0 22 9 37 20 20 16 27 18
34 8 4 -7 8 -8 8 -3 0 6 4 4 8 -2 4 -7 29 -14 54 -15 25 -2 44 -6 42 -9 -2 -4
3 -9 11 -13 8 -3 12 -12 9 -21 -5 -13 2 -12 41 5 56 24 55 24 55 6 0 -8 -13
-23 -30 -33 -16 -9 -30 -22 -30 -27 0 -6 5 -5 12 2 7 7 23 12 36 12 13 0 20 4
17 10 -6 10 1 12 43 13 12 0 22 3 22 7 0 14 -30 32 -45 27 -16 -7 -24 2 -30
33 -2 11 0 18 6 15 5 -4 9 -2 9 4 0 6 -15 7 -37 4 -29 -4 -35 -3 -27 6 6 7 21
13 33 14 21 1 21 1 2 21 -15 14 -33 19 -68 19 l-48 -1 38 15 c39 16 52 39 17
30 -15 -4 -20 0 -20 14 0 18 -2 19 -37 4 -25 -11 -34 -12 -25 -4 26 27 23 28
-103 29 -104 0 -294 45 -296 69 -1 9 -2 21 -4 26 -1 6 -3 16 -3 23 -2 14 -29
16 -34 2 -5 -17 -67 -20 -102 -5 -19 8 -43 25 -53 38 -10 14 -29 27 -41 31
-15 5 -22 16 -23 34 0 39 -22 97 -36 97 -6 0 -14 3 -18 7 -4 3 -20 -1 -36 -10
-29 -16 -30 -19 -23 -67 3 -27 10 -54 14 -60 17 -22 50 -86 50 -98 0 -8 -4 -7
-10 3 -8 13 -10 13 -10 -1 0 -26 12 -30 27 -9 8 11 19 18 24 15 12 -8 11 -52
-2 -77 -18 -34 6 -47 74 -39 32 4 62 12 65 17 4 5 28 27 54 48 l47 38 -6 -36
c-10 -62 28 -116 82 -116 8 0 21 -13 30 -30 8 -16 23 -33 32 -39 16 -9 16 -12
3 -33 -8 -13 -21 -37 -31 -55 -23 -45 -90 -119 -115 -127 -12 -3 -29 -15 -39
-26 -10 -11 -24 -20 -32 -20 -7 0 -18 -11 -23 -25 -6 -16 -15 -23 -24 -19 -9
3 -19 -3 -26 -17 -9 -15 -14 -18 -20 -9 -5 9 -9 9 -14 1 -9 -14 -66 -15 -66
-1 0 19 -29 -2 -32 -23 -3 -21 -42 -37 -130 -54 -15 -3 -33 -11 -39 -19 -6 -8
-18 -14 -27 -14 -9 0 -31 -5 -49 -12 -25 -9 -33 -17 -30 -30 3 -10 1 -16 -4
-12 -9 5 -13 -9 -10 -33 1 -7 -3 -13 -9 -13 -5 0 -10 -7 -10 -16 0 -9 5 -12
12 -8 7 5 19 9 28 9 8 1 25 5 38 9 15 5 22 3 23 -6 1 -7 2 -20 3 -28 1 -19 84
-20 95 -1 16 25 38 1 37 -42 -1 -23 -3 -44 -6 -47 -3 -3 -18 -31 -35 -63 -16
-31 -46 -88 -65 -125 -47 -89 -81 -141 -119 -176 -23 -22 -29 -35 -25 -53 4
-12 3 -31 -1 -40 -5 -10 -9 -24 -11 -31 -5 -26 -24 -39 -49 -34 -20 3 -24 9
-20 26 6 19 5 20 -8 4 -15 -20 -29 -14 -20 8 9 25 -15 15 -36 -14 -27 -39 -17
-77 19 -74 3 0 15 -18 27 -40 19 -34 20 -39 5 -33 -9 3 -21 7 -27 8 -5 1 -17
9 -25 18 -12 13 -19 14 -31 5 -24 -17 -30 -68 -11 -89 12 -13 13 -20 4 -29
-19 -19 -14 -26 16 -21 26 4 26 4 8 -11 -23 -19 -32 -20 -41 -6 -4 6 -12 4
-21 -5 -9 -8 -21 -15 -27 -15 -7 0 -6 4 3 10 17 11 7 25 -13 17 -16 -6 -28
-65 -15 -73 5 -3 7 0 6 8 -3 13 2 14 49 17 12 0 29 8 37 16 12 13 20 14 36 5
25 -14 21 -36 -6 -32 -13 2 -10 -3 11 -17 l30 -21 -27 0 c-17 0 -26 -5 -24
-12 1 -7 1 -10 -1 -5 -3 4 -8 5 -13 2 -14 -9 -60 14 -60 30 0 8 -5 15 -11 15
-7 0 -8 -7 -4 -17 11 -30 11 -38 -2 -36 -8 2 -13 -8 -13 -24 0 -14 3 -23 7
-20 3 4 13 1 22 -6 20 -17 51 -29 51 -19 0 4 -7 16 -15 26 -23 30 4 40 27 11
16 -21 22 -22 48 -14 25 9 28 13 17 30 -9 14 -9 21 1 31 9 9 12 8 12 -5 0 -9
5 -17 11 -17 5 0 8 4 5 8 -2 4 3 8 13 8 12 0 17 -7 16 -21 -1 -11 -3 -26 -4
-34 -1 -11 -5 -10 -16 5 -14 18 -14 18 -10 -6 3 -13 -1 -27 -7 -31 -8 -5 -3
-12 15 -20 15 -7 27 -18 27 -24 0 -7 10 -23 22 -36 30 -32 61 -80 56 -85 -9
-8 -89 69 -106 102 -16 32 -18 33 -30 14 -10 -17 -10 -20 3 -20 10 0 15 -10
15 -32 1 -38 17 -64 45 -70 13 -2 20 -11 19 -26 0 -12 3 -22 8 -22 4 0 8 5 8
10 0 6 7 10 16 10 12 0 14 -7 9 -33 -9 -41 -12 -44 -35 -29 -11 7 -21 12 -23
12 -5 0 0 -82 7 -127 9 -50 33 -65 42 -25 11 43 21 50 64 45 27 -4 44 -1 54
10 33 32 6 74 -39 63 -18 -5 -25 -2 -25 9 0 8 5 15 10 15 6 0 2 12 -7 27 -10
15 -13 24 -6 20 15 -9 25 22 19 60 -5 27 -4 27 10 8 8 -11 19 -20 24 -20 4 0
11 -3 15 -7 11 -11 33 15 27 32 -5 13 -3 13 11 1 9 -7 17 -20 17 -28 0 -7 6
-16 14 -19 17 -7 30 -35 14 -31 -25 5 -17 -23 14 -45 18 -13 33 -32 34 -43 0
-11 4 -45 8 -75 8 -52 7 -54 -9 -35 -9 11 -13 14 -9 6 4 -8 7 -30 6 -49 -1
-20 3 -41 9 -49 6 -7 9 -19 6 -26 -3 -8 -1 -20 4 -28 8 -11 9 -10 7 5 -2 10 2
21 8 23 19 7 25 -27 9 -51 -12 -19 -13 -25 -3 -33 17 -13 51 -27 61 -25 4 1 7
-3 7 -8 0 -6 8 -10 18 -11 12 0 11 -3 -7 -10 -12 -5 -21 -15 -18 -22 18 -49
18 -57 0 -58 -13 0 -14 -2 -4 -6 11 -4 8 -10 -10 -24 -13 -10 -18 -19 -11 -19
7 0 11 -4 8 -9 -7 -11 54 -41 82 -41 12 0 24 -5 27 -10 5 -8 11 -8 20 0 15 12
30 -3 20 -20 -3 -5 1 -10 9 -10 12 0 14 5 6 24 l-9 23 39 -18 c21 -10 47 -30
58 -44 11 -14 26 -25 35 -25 8 0 30 -11 49 -24 20 -13 53 -29 74 -36 22 -7 48
-20 59 -30 11 -10 37 -23 58 -30 20 -6 35 -16 32 -21 -5 -8 19 -13 28 -6 2 1
11 -4 20 -11 9 -8 20 -11 25 -8 5 3 36 -7 68 -22 99 -47 159 -64 222 -63 13 1
20 -4 17 -9 -3 -6 -1 -10 6 -10 7 0 21 -7 30 -16 10 -9 37 -18 59 -20 40 -3
76 -25 63 -38 -4 -3 7 -7 23 -7 42 -2 66 -5 110 -14 21 -5 43 -7 47 -6 5 1 6
-3 3 -8 -8 -12 26 -23 62 -20 33 2 64 -10 56 -22 -3 -5 -2 -9 3 -10 4 0 19 -3
33 -5 22 -4 23 -3 7 8 -17 13 -16 14 8 16 15 1 28 -4 31 -13 4 -8 24 -18 45
-21 29 -5 44 -14 54 -33 8 -14 14 -20 15 -13 0 7 5 10 10 7 18 -11 10 -25 -14
-25 -17 0 -27 -7 -32 -22 -4 -13 -2 -24 4 -26 5 -1 8 -11 5 -22 -6 -23 -54
-35 -80 -21 -52 28 -130 60 -239 96 -92 32 -126 39 -142 32 -15 -7 -31 -5 -54
4 -18 8 -36 13 -40 11 -5 -1 -8 3 -8 9 0 6 -7 8 -16 5 -8 -3 -13 -2 -10 3 6 9
-38 29 -78 37 -15 4 -17 0 -14 -21 3 -14 1 -25 -3 -25 -8 0 -11 15 -8 36 1 11
-55 44 -73 44 -10 0 -18 -5 -18 -10 0 -17 -52 0 -80 26 -30 27 -79 29 -72 2 2
-9 11 -19 19 -22 9 -4 12 -2 7 7 -6 8 -3 8 9 -1 9 -8 21 -11 26 -8 5 4 12 2
16 -4 3 -5 1 -10 -6 -10 -7 0 -4 -7 7 -15 18 -13 18 -14 1 -15 -31 0 -8 -20
24 -20 27 0 29 2 19 20 -7 14 -7 20 0 20 5 0 10 -4 10 -8 0 -5 6 -9 14 -9 7 0
13 7 12 16 -1 20 35 22 42 2 3 -9 0 -11 -9 -5 -12 7 -12 5 -1 -9 12 -15 11
-16 -17 -12 -21 2 -31 -1 -31 -10 0 -14 27 -28 40 -20 13 8 110 -17 103 -27
-3 -6 -14 -7 -26 -4 -11 3 -29 0 -39 -5 -13 -7 -23 -7 -31 -1 -14 12 -167 20
-160 9 3 -4 12 -7 21 -6 34 3 51 -1 66 -17 9 -8 20 -13 25 -9 6 3 9 -4 8 -15
-1 -12 -5 -16 -10 -11 -5 5 -16 7 -25 3 -11 -4 -14 -1 -9 11 3 9 2 17 -3 17
-6 0 -10 -4 -10 -10 0 -5 -8 -10 -17 -10 -26 0 -6 -13 24 -16 15 -2 29 -8 31
-13 2 -5 10 -7 19 -4 8 3 19 0 24 -8 4 -8 28 -19 51 -26 l43 -11 -35 -2 -35
-2 30 -8 c62 -16 -18 -10 -130 9 -120 21 -309 72 -450 121 -185 66 -548 257
-597 315 -36 44 -62 63 -83 60 -16 -1 -22 2 -18 11 3 10 -3 14 -20 14 -14 0
-29 5 -33 12 -4 7 -3 8 4 4 7 -4 12 -5 12 -2 0 3 -16 12 -35 21 -19 9 -47 28
-62 42 -15 14 -41 37 -57 52 -16 14 -25 20 -21 12 5 -9 4 -12 -3 -7 -7 4 -12
14 -12 22 0 8 -4 14 -9 14 -5 0 -22 13 -37 29 -15 17 -32 27 -37 24 -6 -3 -8
-2 -6 3 3 5 -15 29 -39 54 -24 25 -41 39 -37 33 3 -7 4 -13 1 -13 -3 0 -10 10
-17 21 -9 17 -8 20 3 13 7 -4 -5 10 -27 32 -105 102 -191 214 -297 386 -58 94
-161 294 -198 383 -230 562 -267 1192 -106 1775 83 303 246 643 405 851 20 26
43 57 51 69 42 64 142 176 153 172 4 -1 7 4 7 11 0 7 22 33 49 57 27 25 47 48
45 52 -3 4 -2 8 3 8 14 0 78 60 75 71 -1 6 2 8 7 5 5 -3 26 10 47 30 22 20 58
49 82 65 23 17 42 35 42 40 0 6 4 8 9 5 5 -4 11 -2 13 2 4 12 226 160 330 221
278 163 673 292 1028 336 126 15 407 18 470 4z m745 -380 c4 -6 13 -8 20 -5 7
2 16 -2 19 -10 3 -8 -1 -14 -9 -14 -9 0 -12 -6 -9 -15 7 -18 1 -18 -48 -5 -21
6 -43 20 -49 31 -9 18 -8 20 8 15 10 -3 25 -1 33 4 19 13 27 12 35 -1z m-38
-75 c-3 -3 -12 -4 -19 -1 -8 3 -5 6 6 6 11 1 17 -2 13 -5z m158 -134 c-27 -12
-43 -12 -25 0 8 5 22 9 30 9 10 0 8 -3 -5 -9z m65 -30 c8 -5 16 -14 16 -20 1
-5 2 -14 3 -20 0 -5 7 -10 15 -10 8 0 17 -7 20 -16 4 -10 2 -13 -7 -8 -8 6 -8
3 1 -9 19 -23 7 -37 -33 -37 -31 0 -34 3 -32 28 2 24 -2 27 -32 30 -21 2 -31
0 -26 -7 3 -6 -1 -11 -9 -11 -8 0 -18 5 -21 10 -3 6 -1 10 4 10 25 0 9 20 -16
21 -21 1 -18 3 12 8 22 4 46 3 53 -2 7 -6 12 -6 12 1 0 6 -5 14 -10 17 -6 4
-8 11 -5 16 8 12 36 11 55 -1z m47 -7 c-4 -3 -2 -12 4 -20 13 -14 9 -16 -15
-7 -13 5 -14 9 -5 20 6 8 14 14 17 14 3 0 2 -3 -1 -7z m-232 -23 c3 -5 -1 -10
-10 -10 -9 0 -13 5 -10 10 3 6 8 10 10 10 2 0 7 -4 10 -10z m392 -34 c0 -8 -6
-12 -14 -9 -7 3 -13 11 -13 19 0 7 6 11 13 8 8 -3 14 -11 14 -18z m-116 -53
c1 -24 3 -29 6 -15 5 28 14 28 31 1 10 -15 11 -24 3 -32 -16 -16 -14 -34 5
-41 12 -4 14 -1 9 14 -5 15 -3 18 9 14 9 -3 16 -10 16 -14 0 -5 9 -12 20 -15
14 -4 20 -15 20 -34 0 -16 7 -34 15 -41 23 -19 18 -27 -17 -23 -18 2 -27 0
-20 -3 6 -3 12 -10 12 -15 0 -6 -4 -7 -10 -4 -5 3 -10 1 -10 -4 0 -6 -7 -11
-15 -11 -8 0 -15 -4 -15 -10 0 -12 -69 -3 -86 11 -7 6 -10 18 -7 26 4 10 2 14
-4 10 -6 -4 -15 -1 -21 6 -8 10 -5 13 16 12 19 0 30 7 37 23 5 12 13 22 17 22
5 0 8 7 8 15 0 8 -6 15 -12 15 -10 0 -9 3 1 9 9 6 10 11 2 15 -6 4 -15 5 -20
1 -5 -3 -12 -1 -16 5 -3 5 2 10 12 10 16 1 17 1 1 10 -13 8 -15 17 -8 39 4 16
6 32 2 35 -3 3 0 6 6 6 7 0 13 -16 13 -37z m190 -15 c11 -11 17 -23 14 -26 -6
-6 -45 28 -45 40 0 14 12 9 31 -14z m-104 -4 c-3 -3 -12 -4 -19 -1 -8 3 -5 6
6 6 11 1 17 -2 13 -5z m26 -35 l22 -20 -24 9 c-14 5 -27 14 -29 20 -6 18 6 14
31 -9z m-448 -19 c3 -5 1 -10 -4 -10 -6 0 -11 5 -11 10 0 6 2 10 4 10 3 0 8
-4 11 -10z m35 0 c0 -5 -5 -10 -11 -10 -5 0 -7 5 -4 10 3 6 8 10 11 10 2 0 4
-4 4 -10z m488 -26 c-4 -3 -12 5 -18 18 -12 22 -12 22 6 6 10 -10 15 -20 12
-24z m-393 -24 c3 -5 1 -10 -4 -10 -6 0 -11 5 -11 10 0 6 2 10 4 10 3 0 8 -4
11 -10z m160 -20 c3 -6 -1 -7 -9 -4 -18 7 -21 14 -7 14 6 0 13 -4 16 -10z
m-85 -60 c0 -5 -2 -10 -4 -10 -3 0 -8 5 -11 10 -3 6 -1 10 4 10 6 0 11 -4 11
-10z m320 -20 c0 -5 -7 -10 -16 -10 -8 0 -12 5 -9 10 3 6 10 10 16 10 5 0 9
-4 9 -10z m-38 -35 c17 -33 17 -35 0 -44 -26 -14 -47 2 -34 25 7 12 7 25 1 36
-7 13 -6 18 3 18 7 0 21 -16 30 -35z m138 -50 c0 -8 -2 -15 -4 -15 -2 0 -12
-3 -21 -6 -15 -6 -15 -4 -4 15 16 25 29 27 29 6z m-40 -69 c0 -14 -4 -27 -9
-31 -15 -8 -24 14 -12 29 6 7 8 16 4 19 -3 4 -1 7 5 7 7 0 12 -11 12 -24z
m-60 -238 c-1 -39 -14 -22 -23 30 -6 29 -5 31 8 18 8 -8 15 -30 15 -48z m373
-38 c-3 -12 -8 -19 -11 -16 -5 6 5 36 12 36 2 0 2 -9 -1 -20z m-534 -16 c11
-11 -7 -10 -34 3 l-30 14 30 -6 c16 -4 32 -9 34 -11z m166 -23 c-6 -5 -25 10
-25 20 0 5 6 4 14 -3 8 -7 12 -15 11 -17z m-195 9 c8 -5 11 -10 5 -10 -5 0
-17 5 -25 10 -8 5 -10 10 -5 10 6 0 17 -5 25 -10z m25 -58 c-3 -3 -11 0 -18 7
-9 10 -8 11 6 5 10 -3 15 -9 12 -12z m525 -559 c0 -22 -20 -14 -30 11 -5 13
-14 27 -19 31 -6 3 -11 10 -11 15 0 4 14 -4 30 -18 17 -15 30 -32 30 -39z m28
-52 c2 -25 -2 -41 -8 -41 -7 0 -9 8 -5 21 5 15 4 19 -4 15 -12 -8 -15 13 -5
38 10 25 20 10 22 -33z m32 -41 c0 -5 -4 -10 -10 -10 -5 0 -10 5 -10 10 0 6 5
10 10 10 6 0 10 -4 10 -10z m8 -45 c-3 -3 -9 2 -12 12 -6 14 -5 15 5 6 7 -7
10 -15 7 -18z m-2268 -10 c-7 -8 -16 -15 -21 -15 -5 0 -6 7 -3 15 4 8 13 15
21 15 13 0 13 -3 3 -15z m-130 -75 c0 -11 -16 -27 -30 -32 -19 -6 -48 21 -33
30 13 8 63 9 63 2z m1907 -232 c-3 -8 -6 -5 -6 6 -1 11 2 17 5 13 3 -3 4 -12
1 -19z m118 -14 c19 -14 17 -15 -22 -12 -32 2 -39 6 -31 16 14 16 28 15 53 -4z
m-535 -18 c0 -2 -7 -7 -16 -10 -8 -3 -12 -2 -9 4 6 10 25 14 25 6z m680 -6 c0
-5 -2 -10 -4 -10 -3 0 -8 5 -11 10 -3 6 -1 10 4 10 6 0 11 -4 11 -10z m-202
-18 c2 -7 -6 -12 -17 -12 -21 0 -27 11 -14 24 9 9 26 2 31 -12z m-48 4 c0 -3
-4 -8 -10 -11 -5 -3 -10 -1 -10 4 0 6 5 11 10 11 6 0 10 -2 10 -4z m176 -23
c-10 -10 -19 5 -10 18 6 11 8 11 12 0 2 -7 1 -15 -2 -18z m211 11 c3 -9 17
-27 29 -40 13 -12 24 -29 24 -36 -1 -7 -7 -2 -15 12 -8 14 -14 21 -15 16 0 -6
-5 -5 -12 2 -19 19 -27 15 -42 -20 -9 -21 -15 -27 -15 -15 -1 10 -6 15 -11 12
-6 -4 -7 -11 -4 -17 4 -7 2 -8 -4 -4 -12 7 -5 36 9 36 5 0 9 7 9 15 0 8 7 15
15 15 8 0 15 5 15 10 0 6 -5 10 -11 10 -5 0 -7 5 -4 10 9 15 25 12 32 -6z
m-417 -4 c0 -5 -7 -10 -15 -10 -8 0 -15 5 -15 10 0 6 7 10 15 10 8 0 15 -4 15
-10z m243 -45 c-3 -9 -8 -14 -10 -11 -3 3 -2 9 2 15 9 16 15 13 8 -4z m191
-26 c-2 -4 5 -13 17 -19 32 -18 9 -34 -27 -18 -39 16 -38 16 -26 31 12 14 45
19 36 6z m-275 -6 c-4 -25 3 -43 17 -43 8 0 13 4 10 9 -3 5 8 14 24 20 18 6
30 6 30 0 0 -5 -10 -9 -21 -9 -16 0 -20 -5 -16 -20 5 -18 -3 -24 -24 -22 -4 1
-5 -8 -2 -18 3 -11 0 -20 -6 -20 -6 0 -11 7 -11 15 0 27 -1 30 -23 53 -18 20
-19 24 -7 32 18 12 30 13 29 3z m-19 -93 c0 -5 -8 -10 -17 -10 -15 0 -16 2 -3
10 19 12 20 12 20 0z m-2620 -20 c0 -5 -2 -10 -4 -10 -3 0 -8 5 -11 10 -3 6
-1 10 4 10 6 0 11 -4 11 -10z m2701 -13 c16 -12 33 -47 23 -47 -3 0 -19 14
-36 30 -28 29 -19 42 13 17z m-2961 -17 c0 -5 -5 -10 -11 -10 -5 0 -7 5 -4 10
3 6 8 10 11 10 2 0 4 -4 4 -10z m763 3 c-7 -2 -21 -2 -30 0 -10 3 -4 5 12 5
17 0 24 -2 18 -5z m-726 -9 c-3 -3 -12 -4 -19 -1 -8 3 -5 6 6 6 11 1 17 -2 13
-5z m213 -8 c0 -2 -11 -6 -25 -8 -13 -3 -22 -1 -19 3 5 9 44 13 44 5z m64 -22
c9 -3 16 -10 16 -15 0 -15 -47 -10 -60 6 -10 12 -9 15 8 15 11 0 27 -3 36 -6z
m2738 -49 c-5 -51 -10 -59 -30 -43 -10 8 -13 9 -9 1 4 -6 3 -14 -1 -17 -5 -3
-9 6 -8 21 1 26 -27 42 -40 22 -3 -5 -13 -9 -22 -9 -11 0 -3 10 21 27 20 14
37 30 37 35 0 5 12 8 28 6 25 -3 27 -6 24 -43z m-632 5 c0 -5 -10 -10 -22 -9
-22 0 -22 1 -3 9 11 5 21 9 23 9 1 1 2 -3 2 -9z m690 -5 c0 -2 -7 -5 -15 -9
-9 -3 -15 0 -15 9 0 9 6 12 15 9 8 -4 15 -7 15 -9z m-2130 -11 c0 -20 -18 -54
-29 -54 -5 0 -16 12 -26 26 -14 22 -15 28 -4 35 23 15 59 10 59 -7z m1943 9
c-7 -2 -19 -2 -25 0 -7 3 -2 5 12 5 14 0 19 -2 13 -5z m-2076 -45 c2 -18 0
-20 -7 -8 -12 18 -13 30 -2 30 4 0 9 -10 9 -22z m168 -58 c3 -5 2 -10 -4 -10
-5 0 -13 5 -16 10 -3 6 -2 10 4 10 5 0 13 -4 16 -10z m1085 -4 c0 -8 -4 -18
-10 -21 -5 -3 -10 -4 -10 -1 0 2 -3 11 -6 20 -4 11 -1 16 10 16 9 0 16 -6 16
-14z m310 4 c0 -5 -4 -10 -10 -10 -5 0 -10 5 -10 10 0 6 5 10 10 10 6 0 10 -4
10 -10z m-1486 -26 c26 -10 18 -24 -14 -24 -16 0 -30 5 -30 11 0 5 5 7 10 4 6
-3 10 -1 10 4 0 13 3 13 24 5z m1104 -14 c-17 -27 -8 -31 37 -19 21 6 52 8 69
5 17 -4 39 -7 49 -7 17 0 17 -1 -2 -18 -18 -16 -27 -17 -62 -7 -33 8 -45 8
-67 -5 -15 -9 -26 -21 -25 -27 4 -15 -57 -4 -78 14 -8 8 -21 14 -29 14 -10 0
-10 3 0 15 15 18 0 20 -20 3 -12 -11 -12 -10 -2 3 6 9 9 19 5 22 -3 4 8 7 26
7 24 0 34 -5 38 -20 7 -25 40 -27 40 -2 0 35 3 42 18 42 13 0 13 -3 3 -20z
m282 -29 c0 -15 -39 -24 -68 -15 l-27 7 30 7 c44 11 65 11 65 1z m-520 -16 c7
-9 8 -15 2 -15 -5 0 -12 7 -16 15 -3 8 -4 15 -2 15 2 0 9 -7 16 -15z m1150
-22 c0 -8 -13 -13 -32 -12 -18 0 -46 -2 -63 -6 -27 -5 -26 -4 9 13 43 22 86
24 86 5z m-2790 -23 c0 -5 -2 -10 -4 -10 -3 0 -8 5 -11 10 -3 6 -1 10 4 10 6
0 11 -4 11 -10z m1885 -20 c-3 -5 -1 -10 4 -10 6 0 11 -13 11 -30 0 -16 -3
-29 -7 -28 -15 3 -43 -14 -38 -22 8 -13 -9 -20 -25 -10 -12 7 -12 11 0 25 12
14 12 18 -1 26 -10 6 -10 9 -1 9 6 0 12 9 12 19 0 19 12 29 38 30 7 1 10 -3 7
-9z m-335 -14 c0 -2 -7 -6 -15 -10 -8 -3 -15 -1 -15 4 0 6 7 10 15 10 8 0 15
-2 15 -4z m1196 -33 c-10 -10 -19 5 -10 18 6 11 8 11 12 0 2 -7 1 -15 -2 -18z
m-2809 -15 c-3 -8 -6 -5 -6 6 -1 11 2 17 5 13 3 -3 4 -12 1 -19z m857 -4 c5
-14 4 -15 -9 -4 -12 10 -15 10 -15 0 0 -8 -3 -11 -6 -7 -7 7 4 27 16 27 4 0
11 -7 14 -16z m1976 6 c0 -5 -5 -10 -11 -10 -5 0 -7 5 -4 10 3 6 8 10 11 10 2
0 4 -4 4 -10z m470 0 c-20 -13 -53 -13 -45 0 3 6 18 10 33 10 21 0 24 -2 12
-10z m-1820 -20 c0 -5 -2 -10 -4 -10 -3 0 -8 5 -11 10 -3 6 -1 10 4 10 6 0 11
-4 11 -10z m630 -15 c0 -8 -7 -15 -16 -15 -14 0 -14 3 -4 15 7 8 14 15 16 15
2 0 4 -7 4 -15z m-2164 -52 c-11 -11 -17 4 -9 23 7 18 8 18 11 1 2 -10 1 -21
-2 -24z m2534 33 c0 -2 -9 -6 -20 -9 -11 -3 -20 -1 -20 4 0 5 9 9 20 9 11 0
20 -2 20 -4z m400 -30 c-14 -14 -24 0 -16 21 6 15 8 15 16 3 6 -9 5 -19 0 -24z
m-315 -6 c3 -5 2 -10 -4 -10 -5 0 -13 5 -16 10 -3 6 -2 10 4 10 5 0 13 -4 16
-10z m-2698 -52 c-3 -8 -6 -5 -6 6 -1 11 2 17 5 13 3 -3 4 -12 1 -19z m3003
-2 c0 -2 -7 -6 -15 -10 -8 -3 -15 -1 -15 4 0 6 7 10 15 10 8 0 15 -2 15 -4z
m-2970 -26 c0 -5 -4 -10 -10 -10 -5 0 -10 5 -10 10 0 6 5 10 10 10 6 0 10 -4
10 -10z m595 -10 l20 -9 -20 0 c-11 0 -29 4 -40 9 l-20 9 20 0 c11 0 29 -4 40
-9z m-561 -41 c-6 -11 -24 -2 -24 11 0 5 7 7 15 4 8 -4 12 -10 9 -15z m-109
-59 c3 -5 1 -10 -4 -10 -6 0 -11 5 -11 10 0 6 2 10 4 10 3 0 8 -4 11 -10z
m3132 -15 c0 -8 -4 -12 -9 -9 -5 3 -6 10 -3 15 9 13 12 11 12 -6z m53 1 c0
-21 -20 -30 -33 -17 -9 9 -8 14 3 21 21 14 30 12 30 -4z m-3140 -12 c0 -8 -5
-12 -10 -9 -6 4 -8 11 -5 16 9 14 15 11 15 -7z m-130 -25 c0 -5 -4 -9 -10 -9
-5 0 -10 7 -10 16 0 8 5 12 10 9 6 -3 10 -10 10 -16z m347 -21 c-3 -8 -6 -5
-6 6 -1 11 2 17 5 13 3 -3 4 -12 1 -19z m2883 13 c0 -12 -20 -25 -27 -18 -7 7
6 27 18 27 5 0 9 -4 9 -9z m127 -43 c-3 -8 -6 -5 -6 6 -1 11 2 17 5 13 3 -3 4
-12 1 -19z m-3052 -8 c-3 -5 -10 -10 -16 -10 -5 0 -9 5 -9 10 0 6 7 10 16 10
8 0 12 -4 9 -10z m-277 -56 c3 -23 1 -26 -11 -16 -11 10 -20 8 -41 -9 -14 -11
-26 -19 -27 -17 -1 2 -2 18 -4 37 -2 22 0 29 6 20 6 -10 9 -8 9 9 0 15 -4 21
-12 16 -6 -4 -8 -3 -5 3 5 7 19 7 44 -2 30 -10 39 -19 41 -41z m329 26 c-1
-11 -7 -20 -14 -20 -15 0 -15 2 -7 24 9 23 23 20 21 -4z m95 -12 c-7 -7 -12
-8 -12 -2 0 6 3 14 7 17 3 4 9 5 12 2 2 -3 -1 -11 -7 -17z m2844 -11 c1 -9 -2
-19 -7 -23 -5 -3 -9 0 -9 5 0 6 -7 11 -15 11 -18 0 -20 16 -2 23 19 8 30 3 33
-16z m-252 1 c-3 -4 -12 -8 -20 -8 -8 0 -13 4 -10 8 3 5 12 9 20 9 8 0 13 -4
10 -9z m-2658 -22 c9 -10 10 -17 4 -21 -6 -4 -10 -12 -9 -18 3 -29 -2 -57 -11
-57 -5 0 -10 10 -10 23 -1 20 -2 20 -11 5 -12 -22 -44 -24 -35 -3 6 17 -9 21
-19 5 -3 -6 1 -17 9 -26 18 -18 21 -34 6 -34 -6 0 -5 -8 2 -20 7 -11 18 -18
25 -16 6 3 14 0 16 -7 3 -7 8 0 12 16 4 15 11 27 16 27 5 0 4 -11 -1 -25 -7
-20 -6 -32 6 -50 15 -23 15 -25 0 -25 -14 0 -14 -3 -4 -19 9 -15 16 -17 25
-10 7 6 17 8 24 4 8 -6 7 -10 -2 -17 -10 -7 -9 -8 6 -4 15 4 23 -1 32 -19 10
-22 9 -25 -8 -25 -10 0 -19 4 -19 8 0 11 -40 9 -58 -2 -7 -4 -16 -5 -19 -2 -4
3 0 6 7 6 9 0 8 6 -5 20 -18 20 -18 21 0 14 15 -6 17 -4 11 12 -5 10 -9 25 -9
31 0 7 -9 15 -19 19 -10 3 -18 9 -18 14 0 5 -9 12 -20 15 -11 3 -20 13 -20 21
0 8 -7 14 -15 14 -13 0 -14 4 -5 21 7 11 8 28 5 37 -13 30 -13 62 -2 62 7 0
18 9 25 20 15 24 66 27 88 6z m-349 -25 c8 8 13 7 18 -2 5 -7 4 -10 -3 -5 -5
3 -12 1 -14 -5 -2 -7 -12 -7 -30 2 -15 6 -25 16 -22 21 3 5 14 2 23 -6 12 -11
20 -13 28 -5z m38 -42 c11 -17 -1 -21 -15 -4 -8 9 -8 15 -2 15 6 0 14 -5 17
-11z m67 4 c-6 -2 -10 -9 -6 -14 3 -5 0 -9 -5 -9 -12 0 -14 13 -4 23 3 4 11 7
17 6 6 0 5 -3 -2 -6z m1338 -24 c0 -17 4 -20 24 -15 14 3 27 2 31 -3 7 -12
-47 -23 -92 -19 -31 3 -48 18 -20 18 7 0 19 9 27 20 19 26 30 25 30 -1z m340
-3 c0 -3 -4 -8 -10 -11 -5 -3 -10 -1 -10 4 0 6 5 11 10 11 6 0 10 -2 10 -4z
m-1390 -46 c0 -5 -2 -10 -4 -10 -3 0 -8 5 -11 10 -3 6 -1 10 4 10 6 0 11 -4
11 -10z m1695 -21 c-8 -11 -16 -11 -34 0 -22 14 -4 33 20 21 11 -6 17 -15 14
-21z m1010 20 c2 -3 -14 -15 -37 -27 -50 -25 -60 -21 -30 11 20 21 53 29 67
16z m-1674 -12 c-6 -8 -7 -18 -3 -22 4 -5 1 -5 -5 -1 -7 4 -13 2 -13 -3 0 -6
-4 -11 -10 -11 -14 0 -13 23 2 38 17 17 44 16 29 -1z m-1516 -17 c3 -5 1 -10
-4 -10 -6 0 -11 5 -11 10 0 6 2 10 4 10 3 0 8 -4 11 -10z m475 1 c0 -6 -4 -13
-10 -16 -5 -3 -10 1 -10 9 0 9 5 16 10 16 6 0 10 -4 10 -9z m1646 0 c-7 -11
-46 -21 -46 -12 0 13 13 21 32 21 11 0 17 -4 14 -9z m-222 -10 c3 -5 -1 -11
-9 -14 -9 -4 -12 -1 -8 9 6 16 10 17 17 5z m-1534 -21 c0 -5 -4 -10 -10 -10
-5 0 -10 5 -10 10 0 6 5 10 10 10 6 0 10 -4 10 -10z m1095 0 c3 -5 -1 -10 -10
-10 -9 0 -13 5 -10 10 3 6 8 10 10 10 2 0 7 -4 10 -10z m395 -8 c0 -5 -11 -14
-25 -20 -15 -7 -25 -8 -25 -2 0 6 7 10 15 10 8 0 15 5 15 10 0 6 5 10 10 10 6
0 10 -4 10 -8z m-1744 -17 c-3 -8 0 -14 6 -12 6 1 12 -3 15 -9 2 -7 -5 -10
-22 -7 -28 6 -36 43 -9 43 10 0 14 -6 10 -15z m1654 -24 c-6 -12 -15 -21 -21
-21 -6 0 -7 5 -4 10 3 6 1 10 -4 10 -6 0 -11 -4 -11 -10 0 -5 -6 -10 -13 -10
-7 0 -17 -10 -22 -22 -8 -18 -17 -22 -40 -20 -38 4 -38 4 -26 36 9 21 17 26
45 26 19 0 37 4 40 9 3 5 15 7 25 4 10 -3 22 0 26 7 12 20 17 3 5 -19z m105 9
c3 -5 1 -10 -4 -10 -6 0 -11 5 -11 10 0 6 2 10 4 10 3 0 8 -4 11 -10z m1181
-47 c-12 -23 -16 -25 -21 -11 -4 10 1 27 12 42 23 31 30 8 9 -31z m-1518 16
c-7 -5 -19 -9 -26 -9 -10 0 -10 3 0 14 7 7 19 11 26 8 11 -4 11 -6 0 -13z m67
1 c-3 -5 -10 -10 -16 -10 -5 0 -9 5 -9 10 0 6 7 10 16 10 8 0 12 -4 9 -10z
m-1339 -30 c14 -17 8 -36 -13 -44 -11 -5 -13 -2 -9 10 4 12 2 15 -9 10 -12 -4
-13 -2 -6 13 6 10 7 22 3 26 -4 3 0 5 8 3 8 -1 20 -10 26 -18z m1194 0 c0 -5
-4 -10 -10 -10 -5 0 -10 5 -10 10 0 6 5 10 10 10 6 0 10 -4 10 -10z m570 0 c0
-5 -2 -10 -4 -10 -3 0 -8 5 -11 10 -3 6 -1 10 4 10 6 0 11 -4 11 -10z m-1505
-48 c-8 -8 -65 20 -59 29 3 5 18 2 34 -8 16 -9 27 -19 25 -21z m1073 26 c-3
-7 -10 -14 -16 -14 -7 -1 -16 -2 -21 -3 -5 0 -12 -9 -14 -18 -4 -15 -5 -14 -6
3 -1 13 8 25 22 32 30 14 39 14 35 0z m912 8 c0 -3 -4 -8 -10 -11 -5 -3 -10
-1 -10 4 0 6 5 11 10 11 6 0 10 -2 10 -4z m-1293 -39 c-2 -6 -10 -13 -18 -16
-12 -3 -12 -1 1 14 14 17 13 18 -7 13 -15 -4 -20 -2 -16 8 6 17 46 -1 40 -19z
m167 18 c-4 -8 -10 -12 -16 -9 -5 3 -18 -3 -29 -15 -20 -21 -56 -30 -44 -11 3
6 13 10 21 10 8 0 14 6 14 14 0 13 16 22 47 25 7 0 10 -6 7 -14z m1663 9 c-3
-3 -12 -4 -19 -1 -8 3 -5 6 6 6 11 1 17 -2 13 -5z m-1622 -24 c0 -7 -7 -16
-15 -18 -13 -4 -13 -3 -2 10 9 11 9 18 2 21 -6 3 -5 4 2 3 7 -2 13 -9 13 -16z
m1375 10 c0 -5 -2 -10 -4 -10 -3 0 -8 5 -11 10 -3 6 -1 10 4 10 6 0 11 -4 11
-10z m-2414 -15 c-19 -15 -46 -20 -46 -10 0 6 40 24 55 24 6 0 1 -6 -9 -14z
m1864 6 c0 -5 -7 -12 -16 -15 -24 -9 -28 -7 -14 9 14 17 30 20 30 6z m517 -3
c0 -7 4 -31 8 -52 7 -34 6 -38 -9 -33 -20 8 -48 -2 -40 -14 3 -5 -2 -10 -10
-10 -9 -1 -20 -3 -26 -4 -5 -1 -14 -3 -20 -4 -5 0 -7 -8 -3 -16 6 -18 41 -16
62 3 18 17 27 7 11 -13 -16 -20 -79 -20 -86 0 -7 16 -40 21 -46 6 -4 -11 -70
20 -75 35 -2 6 20 23 49 39 35 19 48 23 39 12 -12 -15 -11 -17 13 -17 17 0 37
13 61 38 29 31 35 34 35 17 1 -18 2 -18 10 3 10 24 26 30 27 10z m-1377 -30
c0 -3 -6 -8 -12 -11 -7 -2 -10 -7 -7 -11 4 -4 14 1 24 11 17 16 17 16 10 -7
-4 -14 -8 -26 -9 -27 -7 -8 -53 -9 -62 -2 -7 6 -16 4 -23 -5 -14 -17 1 -56 21
-56 7 0 3 -7 -8 -15 -17 -13 -18 -14 -1 -15 10 0 20 -6 23 -14 3 -8 12 -12 19
-10 7 3 16 1 19 -5 4 -6 13 -8 21 -4 24 9 17 -13 -7 -24 -22 -10 -22 -11 -4
-19 13 -5 23 -2 31 10 8 10 16 13 19 7 3 -5 1 -11 -5 -13 -6 -2 -1 -12 12 -23
l22 -20 -7 23 c-5 13 -3 22 3 22 6 0 11 -4 11 -9 0 -5 14 -7 31 -4 19 3 29 1
25 -5 -3 -5 2 -9 12 -8 11 1 18 -8 20 -24 3 -20 2 -22 -11 -11 -13 10 -17 9
-26 -6 -6 -10 -11 -13 -11 -7 0 7 -7 15 -16 18 -8 3 -13 2 -10 -3 3 -5 -1 -11
-9 -15 -8 -3 -15 -1 -15 4 0 5 -15 6 -34 3 -22 -3 -42 0 -58 11 -24 16 -26 16
-32 0 -4 -9 -9 -14 -13 -11 -3 4 -14 2 -25 -4 -15 -8 -22 -7 -31 5 -10 13 -35
21 -80 25 -5 1 -5 7 -1 14 5 8 2 8 -9 -2 -14 -11 -20 -11 -32 -1 -12 10 -15
10 -15 0 0 -10 -3 -10 -14 -1 -11 10 -17 8 -25 -6 -6 -10 -11 -12 -11 -5 0 8
-8 10 -26 6 -20 -5 -25 -4 -19 6 6 9 3 10 -14 0 -27 -14 -24 -42 7 -55 24 -11
29 -25 10 -26 -7 0 -4 -4 7 -8 11 -5 25 -4 33 1 8 7 12 7 12 -1 0 -12 42 -15
54 -4 4 4 19 8 34 9 15 0 34 3 42 6 8 3 12 3 8 1 -15 -9 -8 -32 7 -27 8 4 15
1 15 -5 0 -14 -16 -14 -40 -1 -11 6 -31 8 -45 4 -20 -5 -23 -9 -14 -20 9 -11
9 -14 0 -14 -6 0 -14 6 -17 14 -6 15 -64 19 -64 4 0 -4 -7 -8 -15 -8 -8 0 -15
5 -15 11 0 5 -4 7 -10 4 -8 -5 -15 20 -12 46 1 3 -10 11 -23 17 -21 10 -25 9
-25 -4 0 -11 -5 -14 -16 -10 -9 3 -19 6 -24 6 -4 0 -10 7 -14 15 -5 13 -2 14
17 5 21 -10 21 -10 4 4 -11 8 -25 12 -33 9 -8 -3 -22 1 -32 8 -14 11 -15 11
-4 -1 6 -8 12 -20 12 -28 0 -10 -4 -11 -12 -5 -18 14 -88 24 -88 12 0 -5 -11
-7 -25 -3 -15 4 -32 1 -40 -6 -10 -8 -15 -9 -15 -2 0 6 -6 9 -14 6 -10 -4 -14
-16 -11 -34 4 -36 -14 -44 -60 -24 -38 16 -49 4 -12 -14 12 -6 16 -11 9 -11
-7 -1 -22 4 -33 9 -12 7 -19 7 -19 1 0 -6 -10 -19 -22 -30 -18 -18 -19 -22 -7
-38 13 -17 13 -17 -5 -3 -18 14 -19 13 -14 -6 4 -17 2 -20 -13 -17 -13 4 -18
1 -16 -8 2 -8 2 -11 0 -6 -3 4 -11 7 -19 7 -17 0 -19 26 -2 36 7 5 8 3 3 -6
-5 -8 -4 -11 3 -6 6 4 9 13 6 21 -4 8 -10 13 -15 10 -19 -13 -45 26 -43 66 2
49 10 58 28 33 8 -10 18 -16 21 -12 4 4 16 3 25 -2 14 -7 18 -6 16 5 -1 8 -5
18 -9 21 -11 11 -8 26 3 19 6 -3 13 1 16 9 5 14 8 14 30 -1 21 -13 24 -13 24
0 0 22 32 31 46 13 13 -19 41 -21 47 -3 4 10 7 10 18 0 21 -20 42 -16 36 7 -6
25 18 48 27 24 5 -13 9 -14 21 -4 18 15 35 5 36 -23 0 -12 3 -16 6 -9 2 6 9
10 14 6 5 -3 9 5 9 17 0 12 -3 19 -7 16 -6 -7 -33 11 -33 22 0 12 110 9 111
-3 0 -6 4 -1 9 11 9 23 48 28 63 8 4 -6 10 -5 16 5 8 12 12 10 20 -10 6 -16
10 -19 10 -8 1 14 6 15 31 8 23 -7 34 -4 52 11 17 15 19 22 10 26 -22 9 -52
46 -52 65 0 10 -7 18 -15 18 -8 0 -15 7 -15 16 0 13 7 15 32 10 30 -6 31 -5
13 8 -19 15 -18 15 15 16 24 0 31 -3 21 -9 -7 -5 -10 -14 -6 -20 5 -8 12 -6
25 9 10 11 22 20 26 19 5 -2 27 3 48 9 22 6 43 9 48 6 4 -3 8 3 9 13 0 17 1
16 8 -1 4 -12 18 -20 33 -20 15 -1 24 2 22 6 -3 4 2 8 10 8 10 0 13 6 9 16 -5
14 -3 14 16 3 11 -8 21 -17 21 -21z m-986 -3 c12 -9 16 -20 12 -31 -4 -10 -1
-21 6 -27 9 -6 7 -7 -6 -3 -10 4 -25 1 -32 -5 -12 -9 -13 -9 -9 3 4 10 -4 24
-22 38 l-28 22 28 -7 c22 -6 26 -4 21 9 -8 20 5 20 30 1z m486 -55 c-10 -6 -8
-10 6 -18 22 -11 47 -5 38 9 -3 5 0 9 5 9 19 0 12 -17 -14 -34 -36 -24 -55
-20 -55 9 0 22 -3 25 -25 19 -31 -8 -33 9 -2 23 26 12 69 -3 47 -17z m880 9
c0 -6 -4 -7 -10 -4 -5 3 -10 11 -10 16 0 6 5 7 10 4 6 -3 10 -11 10 -16z m380
-42 c0 -10 -4 -15 -10 -12 -5 3 -10 15 -10 26 0 10 -4 19 -8 19 -5 0 -9 7 -9
16 0 12 5 10 18 -7 10 -13 19 -32 19 -42z m-1606 29 c-6 -16 -24 -23 -24 -8 0
10 22 33 27 28 2 -2 1 -11 -3 -20z m2326 14 c0 -5 -5 -10 -11 -10 -5 0 -7 5
-4 10 3 6 8 10 11 10 2 0 4 -4 4 -10z m-1423 -25 c0 -8 -4 -12 -9 -9 -5 3 -6
10 -3 15 9 13 12 11 12 -6z m-966 -25 c6 0 7 5 4 10 -3 6 1 10 9 10 22 0 29
-18 14 -33 -14 -13 -48 -15 -67 -3 -8 5 -8 13 0 28 10 19 12 20 21 5 5 -10 14
-17 19 -17z m297 16 c17 12 22 12 20 2 -2 -8 5 -12 20 -11 32 4 27 -16 -7 -23
-22 -5 -27 -10 -24 -25 7 -26 -4 -24 -33 8 -14 15 -22 19 -19 10 4 -9 0 -25
-7 -36 -15 -21 -15 -21 -28 5 -10 17 -11 27 -3 32 5 4 14 17 18 30 6 21 8 22
24 8 15 -14 19 -14 39 0z m1026 -13 c4 -11 2 -13 -9 -9 -9 3 -15 0 -15 -9 0
-8 -3 -15 -7 -16 -5 0 -18 -2 -30 -3 -13 -2 -23 3 -23 10 0 7 -3 20 -6 29 -5
13 -2 15 19 10 13 -4 28 -2 31 4 9 13 33 4 40 -16z m-459 7 c3 -5 2 -10 -4
-10 -5 0 -13 5 -16 10 -3 6 -2 10 4 10 5 0 13 -4 16 -10z m1455 -5 c0 -8 -7
-15 -16 -15 -14 0 -14 3 -4 15 7 8 14 15 16 15 2 0 4 -7 4 -15z m-1430 -46 c0
-5 -4 -9 -8 -9 -5 0 -9 7 -9 15 0 8 4 12 9 9 4 -3 8 -9 8 -15z m75 11 c3 -5 1
-10 -4 -10 -6 0 -11 5 -11 10 0 6 2 10 4 10 3 0 8 -4 11 -10z m-902 -6 c-7 -3
-9 -12 -6 -21 4 -10 2 -14 -7 -11 -23 7 -21 38 3 37 12 0 17 -3 10 -5z m87 -8
c0 -8 6 -17 13 -19 9 -4 9 -6 0 -6 -7 -1 -17 8 -23 19 -7 14 -7 20 0 20 5 0
10 -6 10 -14z m1267 -22 c-9 -9 -28 6 -21 18 4 6 10 6 17 -1 6 -6 8 -13 4 -17z
m948 -28 c-19 -28 -38 -26 -28 2 8 21 37 44 41 32 2 -5 -4 -20 -13 -34z
m-1320 -5 c-3 -6 -14 -11 -23 -11 -13 0 -13 2 4 14 21 15 30 14 19 -3z m75 -7
c0 -2 -7 -4 -15 -4 -8 0 -15 4 -15 10 0 5 7 7 15 4 8 -4 15 -8 15 -10z m414 1
c-4 -8 -7 -15 -9 -15 -2 0 -5 7 -9 15 -3 9 0 15 9 15 9 0 12 -6 9 -15z m-27
-25 c1 -12 -4 -20 -13 -20 -8 0 -17 -6 -20 -14 -3 -8 -12 -17 -20 -20 -8 -3
-13 -2 -10 2 2 4 -20 9 -49 10 -38 1 -59 -3 -69 -14 -9 -8 -16 -11 -16 -5 0
19 5 26 14 23 5 -2 3 4 -4 13 -19 23 -5 29 29 12 23 -11 28 -12 24 -2 -3 10 5
13 29 11 18 -1 39 -5 46 -9 6 -5 12 -4 12 0 0 5 10 13 23 19 12 7 22 12 22 13
1 0 1 -8 2 -19z m1104 -17 c-8 -15 -10 -15 -11 -2 0 17 10 32 18 25 2 -3 -1
-13 -7 -23z m-1431 0 c0 -15 2 -16 10 -3 7 11 10 12 10 2 0 -10 4 -10 16 2 19
20 25 20 18 2 -3 -8 -1 -17 5 -21 6 -3 11 1 11 9 0 10 9 16 24 16 32 0 38 -10
21 -34 -12 -15 -22 -18 -57 -12 -24 4 -56 9 -73 12 -46 7 -65 14 -65 26 0 6 8
7 18 3 21 -8 40 -13 30 -8 -15 9 -8 23 12 23 12 0 20 -7 20 -17z m374 -25 c-4
-6 -10 -5 -15 3 -14 22 -10 33 6 19 8 -7 12 -17 9 -22z m-859 -28 c3 -5 1 -10
-4 -10 -6 0 -11 5 -11 10 0 6 2 10 4 10 3 0 8 -4 11 -10z m823 -21 c6 18 21
12 20 -6 0 -10 3 -27 7 -38 5 -17 3 -16 -15 5 -13 15 -21 19 -20 10 1 -8 2
-25 1 -38 -1 -21 -2 -22 -17 -8 -8 9 -20 14 -25 10 -6 -3 -17 0 -26 8 -13 10
-17 10 -20 1 -3 -7 -9 -13 -14 -13 -6 0 -7 5 -3 12 5 8 0 9 -14 6 -12 -4 -22
-2 -22 2 0 5 -3 17 -6 27 -6 14 -4 16 6 6 7 -6 19 -9 26 -6 9 3 14 -1 14 -12
0 -9 4 -13 10 -10 5 3 26 2 45 -4 31 -8 35 -7 35 9 0 10 -5 22 -12 26 -8 5 -9
2 -5 -9 4 -10 1 -17 -6 -17 -7 0 -13 11 -13 24 -2 23 0 24 24 15 18 -7 28 -7
30 0z m-1157 -16 c13 -16 12 -17 -3 -4 -17 13 -22 21 -14 21 2 0 10 -8 17 -17z
m967 4 c7 0 9 -4 4 -9 -5 -5 -20 -4 -35 1 -33 13 -36 25 -4 15 12 -4 28 -7 35
-7z m-461 -33 c-3 -4 -15 1 -27 9 -15 10 -17 16 -8 19 14 5 44 -19 35 -28z
m593 26 c0 -5 -4 -10 -10 -10 -5 0 -10 5 -10 10 0 6 5 10 10 10 6 0 10 -4 10
-10z m-960 -10 c0 -5 -2 -10 -4 -10 -3 0 -8 5 -11 10 -3 6 -1 10 4 10 6 0 11
-4 11 -10z m40 6 c0 -2 3 -11 6 -20 4 -11 1 -16 -11 -16 -9 0 -13 5 -10 10 3
6 1 10 -4 10 -6 0 -11 5 -11 10 0 6 7 10 15 10 8 0 15 -2 15 -4z m516 -21 c8
-10 14 -22 14 -27 0 -4 6 -8 14 -8 15 0 28 -24 19 -34 -10 -9 -25 -7 -19 3 10
16 -34 20 -49 4 -8 -8 -15 -12 -15 -8 0 3 -9 1 -21 -5 -15 -9 -24 -8 -37 2
-15 11 -15 11 -5 -3 7 -9 10 -19 6 -22 -12 -13 -21 -7 -25 18 -5 25 5 30 60
28 6 -1 12 3 12 8 0 5 -4 9 -9 9 -5 0 -18 3 -28 6 -15 5 -15 4 -3 -5 9 -7 10
-11 3 -11 -6 0 -14 4 -18 10 -6 10 -36 2 -48 -14 -5 -7 -7 -5 -4 4 2 8 -2 23
-11 33 -14 15 -13 17 1 17 10 0 17 -7 17 -15 0 -8 8 -15 18 -14 10 0 12 3 4 6
-8 3 -5 10 10 23 29 23 95 21 114 -5z m-607 -11 c6 4 11 0 11 -8 0 -19 -5 -20
-31 -5 -11 5 -17 15 -13 21 4 7 9 6 14 -2 4 -7 13 -9 19 -6z m281 12 c0 -11
-19 -15 -25 -6 -3 5 1 10 9 10 9 0 16 -2 16 -4z m406 -13 c-5 -13 5 -17 36
-14 9 1 20 -4 24 -10 5 -9 2 -10 -9 -6 -9 3 -23 0 -31 -8 -17 -17 -30 -20 -21
-5 3 6 -1 10 -10 10 -11 0 -15 5 -11 15 3 8 1 15 -4 15 -6 0 -10 4 -10 8 0 4
9 8 20 8 13 0 19 -5 16 -13z m-836 -13 c0 -5 -9 -6 -20 -3 -11 3 -20 9 -20 13
0 5 9 6 20 3 11 -3 20 -9 20 -13z m228 -5 l47 3 -35 -17 c-23 -12 -39 -14 -47
-8 -9 6 -13 6 -13 -2 0 -16 30 -26 39 -14 3 6 16 13 29 17 19 6 22 4 20 -15
-2 -13 3 -23 12 -24 8 -2 20 -4 25 -5 23 -5 42 1 42 14 0 11 -4 12 -17 3 -19
-11 -50 -4 -50 13 0 6 5 8 10 5 6 -3 10 -1 10 6 0 9 3 9 14 0 11 -10 17 -8 25
6 7 12 10 13 11 4 0 -7 6 -11 13 -8 7 3 21 -1 31 -8 10 -8 25 -11 34 -8 8 4
13 2 10 -3 -4 -5 8 -9 27 -8 21 1 41 -6 57 -20 13 -11 19 -18 13 -15 -23 15
-55 20 -55 10 0 -6 8 -11 18 -11 9 0 23 -10 31 -21 8 -13 16 -18 20 -12 4 7
11 6 19 -3 21 -23 -15 -18 -45 6 -14 11 -32 20 -39 20 -8 0 -14 7 -14 15 0 18
-16 20 -23 2 -6 -15 34 -57 54 -57 11 0 11 -2 -1 -9 -8 -6 -18 -7 -22 -5 -4 3
-8 0 -8 -6 0 -20 -28 -40 -46 -33 -12 4 -15 3 -10 -5 9 -14 82 -10 114 7 12 6
22 8 22 4 0 -10 -49 -33 -69 -33 -30 0 0 -13 36 -16 28 -2 33 0 18 6 -11 5
-15 9 -9 9 6 1 25 -6 43 -15 18 -9 35 -14 37 -11 3 3 -4 8 -15 12 -25 8 -27
20 -5 29 8 3 12 2 9 -4 -3 -6 1 -10 9 -10 8 0 17 4 20 9 3 5 22 12 41 15 20 4
33 11 30 16 -5 8 4 10 68 10 16 0 26 4 23 9 -3 5 3 7 15 4 19 -5 20 -4 10 16
-11 19 -23 26 -44 22 -5 -1 -6 3 -3 8 9 14 45 1 57 -21 5 -10 15 -16 21 -12 7
4 6 10 -3 16 -10 6 -6 7 11 3 23 -6 24 -5 7 8 -16 13 -16 15 -2 21 9 3 14 2
11 -2 -2 -4 1 -15 8 -24 10 -14 15 -14 41 -2 29 14 29 14 4 11 -16 -2 -26 1
-26 9 0 7 5 10 10 7 7 -4 8 1 3 12 -6 17 -5 18 11 3 10 -8 28 -14 40 -13 17 1
20 -3 17 -24 -3 -17 -1 -21 4 -13 6 8 26 12 58 11 59 -3 104 9 83 22 -21 13
17 12 42 -1 18 -10 29 3 12 13 -5 2 -3 2 4 1 6 -2 14 0 16 4 2 4 3 2 1 -4 -2
-8 17 -12 54 -13 57 -1 87 -5 122 -16 17 -5 48 -11 95 -17 11 -2 23 -7 26 -11
3 -4 30 -12 60 -18 126 -23 148 -30 142 -45 -3 -8 0 -14 6 -14 6 0 11 -4 11
-10 0 -5 -17 -10 -37 -10 -55 0 -83 -10 -83 -29 -1 -11 -5 -8 -15 9 -8 14 -14
20 -15 14 0 -19 -51 -3 -59 19 -4 11 -18 21 -33 23 -32 3 -33 -23 -1 -31 13
-3 21 -10 18 -16 -5 -7 -11 -7 -19 0 -6 5 -25 9 -42 9 -17 -1 -36 2 -43 6 -6
4 -11 2 -11 -3 0 -6 -5 -11 -11 -11 -5 0 -7 5 -4 10 3 6 -1 10 -10 10 -9 0
-15 -6 -12 -12 2 -7 1 -20 -3 -28 -7 -13 0 -16 35 -17 44 -2 126 -31 93 -32
-10 -1 -18 -6 -18 -12 0 -5 4 -8 9 -5 5 3 12 -1 15 -10 4 -10 14 -14 26 -11
13 3 20 0 20 -8 0 -15 -25 -14 -41 2 -12 12 -39 7 -39 -7 0 -5 8 -11 18 -13
13 -4 11 -5 -5 -6 -13 0 -23 -4 -23 -8 0 -5 -15 -8 -34 -8 -19 0 -32 3 -29 8
2 4 -3 7 -11 7 -8 0 -18 -5 -21 -10 -4 -7 -13 -6 -27 1 -13 7 -23 7 -27 2 -3
-6 -18 -9 -32 -9 -20 1 -25 -2 -21 -14 4 -11 2 -12 -7 -4 -17 16 -49 6 -56
-17 -3 -10 -12 -16 -20 -13 -7 3 -16 0 -20 -5 -3 -6 -11 -9 -16 -6 -14 10 14
32 33 27 10 -2 18 1 18 7 0 10 -41 17 -65 11 -5 -2 -25 -2 -42 -1 -24 1 -33
-3 -33 -14 0 -8 -5 -15 -11 -15 -5 0 -7 6 -3 13 4 6 -1 4 -12 -5 -17 -16 -17
-19 -1 -35 47 -51 56 -63 49 -63 -13 0 -37 23 -60 56 -17 25 -27 30 -47 26
-14 -2 -25 -11 -25 -21 0 -14 -2 -14 -10 -1 -8 12 -10 12 -10 -5 0 -16 -2 -17
-9 -5 -6 8 -7 18 -4 24 3 5 1 6 -5 2 -6 -4 -9 -13 -5 -21 4 -11 1 -13 -11 -9
-9 3 -16 2 -16 -2 0 -5 -14 -10 -30 -11 -21 -2 -30 2 -30 12 0 9 10 15 25 15
14 0 25 5 25 11 0 5 -4 7 -10 4 -5 -3 -18 -2 -27 3 -10 5 -31 12 -47 16 -23 6
-27 4 -23 -8 7 -17 -1 -20 -28 -10 -13 6 -14 9 -3 16 8 5 -7 7 -39 6 -31 -2
-53 -8 -53 -14 0 -17 -48 -46 -55 -34 -3 6 -3 15 0 20 3 6 2 10 -4 10 -5 0
-12 8 -15 18 -5 16 -18 18 -99 19 -53 0 -105 6 -122 13 -16 8 -41 14 -55 15
-31 2 -60 14 -60 26 0 5 16 3 35 -5 31 -13 35 -13 35 0 0 8 -4 13 -9 10 -5 -3
-14 8 -21 24 -7 17 -18 30 -24 31 -6 0 -1 4 12 9 26 11 28 23 6 41 -12 10 -17
10 -23 0 -9 -14 -42 -12 -53 3 -7 10 -38 -17 -38 -33 0 -6 -6 -11 -14 -11 -10
0 -12 -7 -9 -22 6 -22 5 -22 -23 4 -17 15 -43 28 -61 30 -19 1 -29 7 -26 14 4
12 -14 29 -31 29 -5 0 -11 5 -13 12 -6 18 36 3 47 -17 5 -10 19 -20 30 -23 17
-4 19 -3 10 8 -7 8 -10 22 -8 32 3 14 8 9 21 -18 15 -30 22 -35 43 -31 20 4
23 7 12 14 -10 8 -9 9 4 5 9 -3 21 0 27 7 15 18 -10 39 -35 30 -16 -5 -16 -4
-4 5 13 10 13 12 0 21 -8 5 -15 17 -15 27 0 10 -5 17 -10 15 -6 -2 -9 -13 -7
-24 2 -17 0 -19 -13 -8 -8 7 -12 17 -8 23 3 5 1 7 -5 3 -6 -3 -13 -2 -17 4 -3
5 -17 10 -30 10 -12 0 -25 7 -28 15 -5 11 -1 12 17 5 39 -15 61 -6 59 23 -1
15 4 28 14 31 11 4 14 2 10 -9 -4 -8 -1 -17 5 -21 7 -4 8 -3 4 4 -4 7 -3 12 3
12 6 0 8 8 5 18 -5 14 -4 14 4 2 6 -8 9 -17 7 -20 -2 -3 6 -19 19 -35 16 -20
23 -23 23 -12 0 9 -3 14 -7 12 -4 -2 -7 2 -7 10 0 13 3 13 16 2 9 -8 24 -17
34 -20 9 -4 17 -12 17 -19 0 -10 2 -10 9 0 6 11 15 9 45 -7 20 -12 42 -21 49
-20 7 0 5 3 -3 6 -8 3 -28 19 -43 37 -16 17 -26 25 -22 18 5 -10 -3 -9 -31 3
-21 9 -41 19 -44 23 -3 5 -16 16 -30 25 -16 11 -19 17 -10 18 8 0 22 2 30 4 8
1 22 -5 30 -13 13 -14 12 -15 -3 -9 -9 3 -17 2 -17 -3 0 -6 9 -10 19 -10 11 0
23 -5 26 -10 4 -6 11 -8 16 -4 5 3 16 0 24 -6 10 -8 23 -9 42 -2 29 10 24 15
-28 26 -14 3 -38 15 -53 27 -24 19 -26 23 -12 31 9 5 17 17 17 26 1 15 2 15 6
1 3 -13 14 -16 51 -14z m782 14 c0 -4 8 -9 18 -12 9 -2 -6 -3 -34 -3 -55 1
-71 21 -17 22 18 0 33 -3 33 -7z m-645 -9 c3 -6 -1 -7 -9 -4 -18 7 -21 14 -7
14 6 0 13 -4 16 -10z m-272 -33 c-7 -11 -23 2 -23 19 0 12 2 12 14 2 8 -7 12
-16 9 -21z m214 27 c-3 -3 -12 -4 -19 -1 -8 3 -5 6 6 6 11 1 17 -2 13 -5z
m267 0 c9 -3 16 -11 16 -16 0 -7 -4 -7 -12 0 -7 5 -22 12 -33 15 -15 3 -16 5
-3 6 9 0 23 -2 32 -5z m356 -4 c0 -5 -2 -10 -4 -10 -3 0 -8 5 -11 10 -3 6 -1
10 4 10 6 0 11 -4 11 -10z m-340 -42 c0 -13 -30 -9 -55 8 -39 25 -29 34 15 16
22 -9 40 -20 40 -24z m-620 19 c0 -5 6 -7 14 -4 8 3 19 0 25 -7 9 -10 7 -13
-6 -11 -10 1 -25 4 -33 7 -8 4 -28 11 -45 16 l-30 10 38 -1 c20 0 37 -4 37
-10z m800 -51 c-27 -12 -26 -44 3 -49 19 -3 19 -4 -3 -3 -20 1 -25 6 -25 28 1
24 -2 27 -22 22 -14 -4 -23 -2 -23 5 0 17 30 25 43 12 19 -19 31 -12 14 7 -10
10 -14 22 -10 26 4 4 15 -3 25 -16 16 -22 16 -23 -2 -32z m-150 24 c0 -11 0
-23 1 -27 0 -4 -5 -9 -13 -11 -10 -3 -10 -2 1 6 10 7 10 11 1 17 -7 4 -16 1
-21 -6 -5 -8 -9 -11 -9 -6 0 12 24 47 32 47 5 0 8 -9 8 -20z m-666 -21 c-8
-13 -24 -1 -24 18 0 13 3 13 15 3 8 -7 12 -16 9 -21z m1736 21 c0 -5 -7 -7
-15 -4 -8 4 -15 8 -15 10 0 2 7 4 15 4 8 0 15 -4 15 -10z m58 -15 c-8 -8 -48
8 -42 16 3 5 14 4 25 -2 12 -6 19 -12 17 -14z m-921 9 c-3 -3 -12 -4 -19 -1
-8 3 -5 6 6 6 11 1 17 -2 13 -5z m-927 -14 c0 -5 7 -10 15 -10 8 0 15 -4 15
-10 0 -17 -45 -4 -48 13 -2 10 1 17 7 17 6 0 11 -4 11 -10z m800 -10 l20 -20
-35 0 c-19 0 -35 5 -35 10 0 6 6 9 13 8 6 -2 11 3 10 10 -4 17 4 15 27 -8z
m737 -6 c-9 -9 -28 6 -21 18 4 6 10 6 17 -1 6 -6 8 -13 4 -17z m71 6 c21 0 24
-2 12 -10 -22 -14 -57 -12 -63 4 -3 8 -1 17 6 19 7 2 14 0 15 -4 2 -5 16 -9
30 -9z m-1515 -27 c-3 -9 -9 -11 -15 -5 -5 5 -6 17 -2 26 5 13 9 14 14 5 5 -7
6 -19 3 -26z m1805 20 c16 -16 16 -16 -1 -10 -10 4 -23 7 -28 7 -5 0 -9 5 -9
10 0 15 20 12 38 -7z m-1561 1 c-3 -3 -12 -4 -19 -1 -8 3 -5 6 6 6 11 1 17 -2
13 -5z m1458 -45 c12 -5 3 -6 -25 -2 -25 3 -49 10 -55 15 -11 11 45 2 80 -13z
m-998 -14 c-21 -6 -35 -14 -31 -18 13 -13 -28 -19 -53 -8 -21 10 -27 9 -38 -5
-11 -16 -12 -16 -18 0 -5 12 -13 15 -26 11 -11 -3 -23 0 -27 6 -5 9 4 11 34 6
23 -3 40 -2 37 2 -2 5 9 8 25 9 17 0 30 -4 30 -9 0 -6 -5 -7 -12 -3 -7 4 -8 3
-4 -4 8 -14 46 2 46 19 0 6 3 8 8 6 4 -3 16 -1 27 3 11 4 25 5 30 2 6 -4 -7
-11 -28 -17z m-909 3 c19 -19 14 -29 -8 -16 -20 13 -27 28 -12 28 4 0 13 -5
20 -12z m147 -8 c3 -5 1 -10 -4 -10 -6 0 -11 5 -11 10 0 6 2 10 4 10 3 0 8 -4
11 -10z m1845 -14 c0 -2 -7 -6 -15 -10 -8 -3 -15 -1 -15 4 0 6 7 10 15 10 8 0
15 -2 15 -4z m-1280 -10 c0 -2 -7 -7 -16 -10 -8 -3 -12 -2 -9 4 6 10 25 14 25
6z m1260 -56 c0 -5 -2 -10 -4 -10 -3 0 -8 5 -11 10 -3 6 -1 10 4 10 6 0 11 -4
11 -10z m-2000 -20 c11 -21 4 -25 -19 -11 -7 5 -10 14 -7 20 10 15 14 14 26
-9z m1867 -6 c-3 -3 -12 -4 -19 -1 -8 3 -5 6 6 6 11 1 17 -2 13 -5z m-1792
-33 c3 -5 1 -12 -5 -16 -5 -3 -10 1 -10 9 0 18 6 21 15 7z m373 -47 c9 -8 12
-14 5 -14 -6 0 -14 4 -17 9 -3 5 -15 11 -26 14 -17 4 -19 3 -9 -9 8 -10 9 -14
0 -14 -6 0 -14 6 -17 14 -3 8 -13 17 -21 20 -13 6 -14 4 -3 -9 18 -21 -3 -46
-22 -26 -11 10 -9 11 7 5 20 -7 20 -7 1 15 -26 28 -10 46 28 31 22 -8 28 -7
33 7 5 13 8 12 15 -7 5 -13 16 -29 26 -36z m1347 36 c3 -5 1 -10 -4 -10 -6 0
-11 5 -11 10 0 6 2 10 4 10 3 0 8 -4 11 -10z m-18 -26 c-3 -3 -12 -4 -19 -1
-8 3 -5 6 6 6 11 1 17 -2 13 -5z m27 -12 c2 -4 -5 -9 -17 -9 -17 -2 -19 0 -7
7 18 12 18 12 24 2z m-1506 -20 c2 -7 -3 -12 -10 -12 -8 0 -15 7 -15 15 0 18
19 15 25 -3z m1275 -57 c-3 -9 -8 -14 -10 -11 -3 3 -2 9 2 15 9 16 15 13 8 -4z
m-1238 -5 c18 -8 17 -9 -7 -9 -15 -1 -30 4 -33 9 -7 12 12 12 40 0z m1145 -26
c0 -11 -5 -14 -16 -10 -9 3 -18 6 -20 6 -3 0 -2 5 1 10 10 16 35 12 35 -6z
m175 6 c7 11 25 4 25 -10 0 -4 -7 -10 -15 -14 -19 -7 -66 14 -59 25 3 5 14 5
24 -1 13 -7 21 -7 25 0z m75 -10 c12 -8 9 -10 -12 -10 -16 0 -28 5 -28 10 0
13 20 13 40 0z m-743 -62 c-9 -6 -9 -8 1 -9 34 -4 96 -35 84 -43 -6 -3 -13 -2
-17 4 -3 5 -24 10 -46 10 -28 0 -38 4 -33 11 5 8 -1 10 -20 7 -18 -4 -26 -1
-26 8 0 8 5 14 11 14 6 0 8 9 4 21 -7 21 -7 21 24 3 21 -12 27 -20 18 -26z
m348 14 c-10 -2 -25 3 -33 12 -15 14 -13 15 17 3 23 -8 28 -13 16 -15z m455 8
c-8 -5 -22 -9 -30 -9 -10 0 -8 3 5 9 27 12 43 12 25 0z m-664 -26 c18 -15 18
-15 -4 -11 -19 5 -21 3 -11 -9 6 -7 15 -12 19 -9 12 7 60 -13 60 -25 0 -13
-25 -13 -48 -1 -9 5 -25 12 -34 15 -11 3 -18 15 -18 31 0 29 8 31 36 9z m260
-9 c1 -8 -6 -15 -15 -15 -27 0 -33 12 -13 26 19 14 25 11 28 -11z m145 11 c-6
-7 -8 -22 -5 -32 5 -15 4 -16 -6 -8 -13 13 -5 54 12 54 7 0 7 -5 -1 -14z m79
4 c12 -8 9 -10 -12 -10 -20 0 -28 -5 -28 -17 0 -15 -2 -16 -10 -3 -7 11 -5 19
7 28 20 14 24 15 43 2z m-376 -25 c19 -14 18 -15 -10 -14 -16 0 -23 3 -15 6
11 5 11 7 0 14 -8 5 -9 9 -4 9 6 -1 19 -7 29 -15z m203 -22 c-3 -3 -13 1 -21
10 -8 8 -12 17 -9 20 3 3 12 -1 20 -9 9 -8 13 -18 10 -21z m518 19 c-3 -3 -11
0 -18 7 -9 10 -8 11 6 5 10 -3 15 -9 12 -12z m-340 -2 c-3 -5 -12 -7 -20 -3
-21 7 -19 13 6 13 11 0 18 -4 14 -10z m-332 -16 c-7 -3 -10 -11 -7 -19 4 -10
0 -12 -15 -8 -17 4 -19 8 -10 19 6 8 19 14 28 13 9 0 11 -3 4 -5z m424 -11 c6
-16 -2 -16 -27 -1 -16 11 -22 9 -35 -7 -12 -14 -18 -16 -21 -7 -3 6 -13 12
-22 12 -11 0 -13 3 -5 8 19 12 106 8 110 -5z m-480 1 c-3 -3 -12 -4 -19 -1 -8
3 -5 6 6 6 11 1 17 -2 13 -5z m133 -4 c0 -5 -2 -10 -4 -10 -3 0 -8 5 -11 10
-3 6 -1 10 4 10 6 0 11 -4 11 -10z m40 -11 c0 -5 -4 -9 -10 -9 -5 0 -10 7 -10
16 0 8 5 12 10 9 6 -3 10 -10 10 -16z m200 -16 c0 -5 -11 -13 -24 -19 -23 -11
-24 -10 -13 7 12 19 37 26 37 12z m-850 -13 c0 -5 -7 -7 -15 -4 -8 4 -15 8
-15 10 0 2 7 4 15 4 8 0 15 -4 15 -10z m780 -36 c0 -17 -16 -19 -23 -1 -5 11
-11 -18 -8 -37 1 -4 -1 -18 -5 -29 -6 -18 -9 -15 -20 23 -16 52 -16 56 -8 47
4 -3 16 0 27 8 22 16 37 12 37 -11z m-444 -1 c16 -10 21 -19 14 -23 -8 -5 -6
-12 5 -24 10 -9 15 -20 11 -23 -9 -9 -48 36 -41 47 3 6 1 10 -5 10 -6 0 -18 7
-26 15 -14 13 -14 15 1 15 8 0 27 -7 41 -17z m454 -32 c0 -17 -15 -19 -28 -5
-11 12 -9 14 8 14 11 0 20 -4 20 -9z m200 -1 c0 -5 -5 -10 -11 -10 -5 0 -7 5
-4 10 3 6 8 10 11 10 2 0 4 -4 4 -10z m-110 -17 c0 -14 -2 -15 -9 -5 -6 11
-10 10 -16 -5 -5 -10 -7 -25 -6 -35 1 -9 -2 -19 -7 -22 -6 -3 -9 2 -8 11 0 10
-4 18 -11 18 -6 0 -15 4 -20 8 -4 5 -3 8 2 7 22 -5 35 1 35 14 0 13 13 23 33
25 4 1 7 -7 7 -16z m-50 -3 c0 -5 -2 -10 -4 -10 -3 0 -8 5 -11 10 -3 6 -1 10
4 10 6 0 11 -4 11 -10z m57 -26 c-3 -3 -12 -4 -19 -1 -8 3 -5 6 6 6 11 1 17
-2 13 -5z m-772 -114 c18 -19 17 -20 -3 -20 -15 0 -20 6 -19 20 1 11 2 20 3
20 0 0 9 -9 19 -20z m62 -44 c-7 -7 -27 -15 -45 -19 -27 -5 -30 -4 -20 7 7 7
19 13 28 12 8 -1 14 4 13 10 -1 7 6 10 17 7 15 -4 17 -8 7 -17z m150 -22 c-3
-3 -12 -4 -19 -1 -8 3 -5 6 6 6 11 1 17 -2 13 -5z m-322 -24 c3 -5 1 -10 -4
-10 -6 0 -11 5 -11 10 0 6 2 10 4 10 3 0 8 -4 11 -10z m142 -6 c-3 -3 -12 -4
-19 -1 -8 3 -5 6 6 6 11 1 17 -2 13 -5z m99 -52 c0 -16 -5 -18 -33 -12 -17 4
-35 5 -40 1 -4 -3 -1 2 6 12 19 24 67 23 67 -1z"/>
<path d="M2620 5480 c-8 -5 -27 -10 -42 -10 -28 0 -34 -17 -13 -32 17 -13 29
-9 56 15 13 13 31 27 39 30 11 4 9 6 -5 6 -11 0 -27 -4 -35 -9z"/>
<path d="M2800 5455 c-7 -9 -10 -18 -6 -22 3 -3 6 -1 6 6 0 9 10 11 33 7 17
-3 25 -3 17 0 -8 4 -20 11 -26 15 -7 6 -16 3 -24 -6z"/>
<path d="M2244 5361 c3 -5 17 -8 32 -8 18 0 22 2 13 8 -18 11 -52 11 -45 0z"/>
<path d="M2540 5345 c0 -14 3 -25 8 -26 4 0 15 -2 24 -4 26 -5 88 17 88 30 0
12 -51 25 -97 25 -18 0 -23 -6 -23 -25z m55 5 c4 -6 -5 -10 -20 -10 -15 0 -24
4 -20 10 3 6 12 10 20 10 8 0 17 -4 20 -10z"/>
<path d="M2265 5329 c-4 -6 -5 -12 -2 -15 2 -3 7 2 10 11 7 17 1 20 -8 4z"/>
<path d="M3245 5310 c18 -20 18 -21 0 -34 -11 -8 -14 -15 -7 -20 17 -11 40 4
45 30 2 14 2 23 -1 20 -2 -3 -11 1 -19 9 -22 23 -39 18 -18 -5z"/>
<path d="M2198 5293 c-16 -2 -28 -8 -28 -13 0 -11 27 -20 44 -14 15 6 31 35
18 33 -4 -1 -19 -4 -34 -6z"/>
<path d="M3366 5273 c4 -16 11 -32 15 -37 17 -19 10 -81 -12 -99 -11 -10 -18
-21 -14 -25 3 -3 10 0 15 8 8 13 10 13 10 -1 0 -9 -7 -22 -15 -29 -12 -10 -15
-9 -16 6 -2 30 2 49 12 55 6 3 6 15 1 28 -8 21 -10 22 -24 7 -13 -13 -17 -13
-21 -1 -3 7 -1 15 5 17 7 3 3 13 -11 27 -21 21 -24 21 -35 6 -15 -20 -70 -32
-116 -25 -33 5 -90 -8 -90 -20 0 -4 -13 -5 -30 -2 -42 6 -37 -3 15 -28 43 -21
59 -40 33 -40 -6 0 5 -14 25 -31 35 -30 40 -59 11 -59 -8 0 -14 -4 -14 -9 0
-5 -7 -17 -16 -26 -13 -13 -19 -14 -25 -4 -4 8 -11 10 -15 6 -4 -3 -1 -13 6
-22 12 -14 7 -20 -14 -16 -5 1 -3 -5 4 -14 13 -16 25 -12 25 8 0 7 10 16 22
22 12 5 24 17 26 27 5 19 27 25 27 8 0 -6 -9 -21 -21 -33 -17 -18 -18 -23 -5
-25 24 -5 54 16 58 40 3 22 22 31 92 43 25 4 40 12 43 25 3 10 11 16 18 13 16
-5 8 -34 -12 -46 -16 -10 -17 -34 0 -43 6 -4 9 -4 5 0 -9 11 14 36 26 28 5 -3
7 1 4 9 -3 8 -2 23 3 34 7 18 8 18 8 2 1 -25 25 -16 29 11 2 12 7 22 11 22 3
0 8 23 9 51 1 36 -1 48 -10 43 -6 -4 -8 -3 -4 4 3 6 1 23 -4 38 -7 17 -7 31
-1 37 14 14 2 37 -20 37 -16 0 -18 -5 -13 -27z m-32 -134 c-3 -5 -10 -6 -16
-3 -8 5 -9 1 -5 -10 4 -9 3 -15 -2 -11 -6 3 -14 -2 -19 -11 -8 -15 -10 -14
-16 2 -5 13 0 23 15 35 23 17 54 15 43 -2z"/>
<path d="M3075 5260 c-3 -5 -2 -10 4 -10 5 0 13 5 16 10 3 6 2 10 -4 10 -5 0
-13 -4 -16 -10z"/>
<path d="M3341 5254 c0 -11 3 -14 6 -6 3 7 2 16 -1 19 -3 4 -6 -2 -5 -13z"/>
<path d="M3068 5213 c7 -3 16 -2 19 1 4 3 -2 6 -13 5 -11 0 -14 -3 -6 -6z"/>
<path d="M2680 5016 c0 -9 5 -16 10 -16 6 0 10 4 10 9 0 6 -4 13 -10 16 -5 3
-10 -1 -10 -9z"/>
<path d="M3380 5012 c0 -5 7 -13 16 -16 10 -4 14 -1 12 6 -5 15 -28 23 -28 10z"/>
<path d="M2605 4880 c-4 -6 -11 -8 -16 -5 -5 3 -6 -1 -3 -9 3 -9 13 -16 21
-16 8 0 12 -4 8 -9 -13 -23 17 -20 40 4 15 14 23 30 20 35 -9 14 -25 2 -19
-14 4 -10 -2 -12 -21 -9 -20 4 -23 8 -14 19 8 9 8 14 1 14 -6 0 -14 -5 -17
-10z"/>
<path d="M2245 4840 c-3 -5 -2 -10 4 -10 5 0 13 5 16 10 3 6 2 10 -4 10 -5 0
-13 -4 -16 -10z"/>
<path d="M2515 4840 c3 -5 8 -10 11 -10 2 0 4 5 4 10 0 6 -5 10 -11 10 -5 0
-7 -4 -4 -10z"/>
<path d="M3128 4833 c7 -3 16 -2 19 1 4 3 -2 6 -13 5 -11 0 -14 -3 -6 -6z"/>
<path d="M2589 4789 c-15 -15 -14 -17 18 -27 29 -9 35 -8 40 6 6 13 7 13 13
-3 4 -11 9 -15 13 -8 4 6 -2 22 -13 34 -14 17 -18 19 -14 7 5 -13 1 -18 -14
-18 -11 0 -22 6 -24 13 -2 9 -7 8 -19 -4z"/>
<path d="M2223 4775 c0 -8 4 -15 9 -15 4 0 8 4 8 9 0 6 -4 12 -8 15 -5 3 -9
-1 -9 -9z"/>
<path d="M2720 4749 c0 -4 3 -14 6 -23 9 -23 27 -20 21 4 -3 10 0 21 7 24 6 2
1 3 -11 3 -13 -1 -23 -4 -23 -8z"/>
<path d="M3090 4700 c0 -6 7 -10 15 -10 8 0 15 2 15 4 0 2 -7 6 -15 10 -8 3
-15 1 -15 -4z"/>
<path d="M2810 4685 c-14 -16 -10 -18 14 -9 9 3 16 10 16 15 0 14 -16 11 -30
-6z"/>
<path d="M3548 4683 c7 -3 16 -2 19 1 4 3 -2 6 -13 5 -11 0 -14 -3 -6 -6z"/>
<path d="M3515 4660 c-3 -5 1 -10 9 -10 9 0 16 5 16 10 0 6 -4 10 -9 10 -6 0
-13 -4 -16 -10z"/>
<path d="M3613 4656 c0 -8 6 -12 15 -8 10 3 13 1 8 -6 -3 -6 -2 -13 3 -16 11
-7 9 13 -2 32 -11 16 -24 15 -24 -2z"/>
<path d="M3470 4646 c0 -2 7 -6 15 -10 8 -3 15 -1 15 4 0 6 -7 10 -15 10 -8 0
-15 -2 -15 -4z"/>
<path d="M3660 4629 c0 -5 5 -7 10 -4 6 3 10 8 10 11 0 2 -4 4 -10 4 -5 0 -10
-5 -10 -11z"/>
<path d="M3718 4613 c7 -3 16 -2 19 1 4 3 -2 6 -13 5 -11 0 -14 -3 -6 -6z"/>
<path d="M3461 4594 c0 -11 3 -14 6 -6 3 7 2 16 -1 19 -3 4 -6 -2 -5 -13z"/>
<path d="M3628 4603 c6 -2 18 -2 25 0 6 3 1 5 -13 5 -14 0 -19 -2 -12 -5z"/>
<path d="M935 4571 c-3 -12 -11 -21 -16 -21 -5 0 -9 -4 -9 -8 0 -20 29 -6 35
16 7 30 -1 41 -10 13z"/>
<path d="M1300 4551 c-14 -9 -29 -21 -33 -28 -4 -7 -15 -13 -23 -13 -22 0
-101 -77 -106 -105 -7 -32 10 -37 58 -14 49 23 74 24 74 3 0 -11 6 -15 20 -11
11 3 20 1 20 -4 0 -5 7 -9 15 -9 8 0 15 4 15 8 0 5 7 17 16 28 15 18 15 18 9
-3 -5 -19 6 -31 18 -20 7 6 48 -43 42 -52 -4 -7 2 -10 17 -7 13 3 24 5 26 7 1
1 6 2 11 3 5 0 13 4 17 9 13 12 -21 8 -35 -5 -11 -11 -11 -9 -2 9 6 13 15 22
19 20 4 -1 7 3 7 8 0 6 -6 8 -15 6 -12 -2 -11 1 4 17 26 30 12 46 -24 27 -58
-30 -70 -12 -14 21 33 18 35 22 21 36 -9 9 -13 18 -10 22 4 3 -8 6 -25 6 -21
0 -32 -5 -32 -15 0 -8 -9 -19 -20 -25 -15 -8 -18 -8 -15 3 4 8 -2 13 -15 13
-11 0 -20 -4 -20 -8 0 -4 -5 -8 -12 -8 -6 0 -1 11 11 24 13 14 20 29 17 35 -4
5 1 14 10 19 15 8 14 10 -3 14 -10 3 -30 -2 -43 -11z m133 -166 c-3 -9 -8 -14
-10 -11 -3 3 -2 9 2 15 9 16 15 13 8 -4z"/>
<path d="M830 4540 c-9 -6 -10 -10 -3 -10 6 0 15 5 18 10 8 12 4 12 -15 0z"/>
<path d="M1917 4543 c-4 -3 -7 -17 -7 -29 0 -18 5 -22 21 -19 25 5 49 23 49
37 0 6 -9 8 -20 5 -11 -3 -20 -1 -20 4 0 11 -14 12 -23 2z"/>
<path d="M902 4510 c-13 -14 -19 -37 -20 -81 -2 -72 -7 -82 -34 -73 -12 4 -18
2 -14 -4 3 -5 -3 -17 -14 -27 -11 -10 -17 -22 -13 -28 3 -5 1 -7 -5 -3 -6 3
-17 0 -25 -8 -8 -8 -18 -12 -22 -8 -5 4 -5 1 -1 -5 4 -8 2 -13 -5 -13 -9 0 -9
-3 0 -14 9 -11 9 -14 -1 -13 -36 1 -47 -4 -45 -22 0 -11 5 -17 9 -15 4 3 8 0
8 -6 0 -6 -7 -13 -15 -16 -8 -4 -15 -15 -15 -27 0 -11 -12 -40 -26 -64 -17
-29 -23 -51 -18 -65 5 -18 4 -19 -9 -7 -8 8 -12 18 -9 23 3 5 0 6 -6 2 -9 -5
-9 -13 -2 -26 14 -27 12 -37 -3 -15 -10 12 -16 15 -21 6 -4 -6 0 -18 8 -27 15
-14 20 -28 17 -46 -2 -13 16 -9 29 7 7 9 10 18 7 22 -4 3 9 21 28 40 29 28 38
32 55 23 11 -6 20 -17 20 -24 0 -26 109 -119 130 -110 37 16 71 16 90 -1 12
-11 28 -15 42 -12 28 7 128 138 128 167 0 27 -25 36 -46 15 -18 -17 -45 -17
-51 1 -9 26 91 32 106 7 9 -16 10 -15 11 8 0 14 5 30 12 37 17 17 -15 27 -41
13 -32 -17 -51 -13 -61 14 -11 28 -28 33 -36 10 -9 -22 -44 -19 -44 4 0 11 -9
23 -21 26 -16 5 -18 9 -9 15 7 4 10 12 6 18 -3 6 0 13 6 16 10 5 10 7 1 12
-20 9 -15 21 10 28 18 5 20 8 7 16 -13 9 -13 11 0 20 13 9 13 11 0 21 -13 9
-13 10 0 6 18 -4 44 19 35 32 -6 11 -45 10 -45 -1 0 -4 -9 -8 -19 -8 -24 0
-39 -41 -34 -100 1 -25 0 -38 -5 -30 -12 25 -53 11 -65 -22 -12 -33 -25 -18
-22 25 3 57 4 59 14 53 5 -4 14 17 20 45 6 28 22 70 36 94 16 26 25 55 23 75
-3 40 -12 46 -36 20z m-116 -245 c-8 -8 -18 -15 -22 -15 -3 0 -1 7 6 15 7 8
17 15 22 15 5 0 3 -7 -6 -15z m-16 -55 c-6 -11 -13 -20 -16 -20 -2 0 0 9 6 20
6 11 13 20 16 20 2 0 0 -9 -6 -20z m-28 3 c-6 -2 -9 -10 -5 -16 4 -7 -1 -6
-10 2 -22 18 -21 21 6 20 12 0 16 -3 9 -6z m238 -67 c0 -2 -7 -7 -16 -10 -8
-3 -12 -2 -9 4 6 10 25 14 25 6z m-100 -26 c22 -17 23 -19 7 -25 -19 -8 -47
10 -47 31 0 19 10 17 40 -6z m104 -126 c-7 -3 -10 -13 -7 -23 3 -13 -2 -20
-17 -24 -14 -3 -20 -1 -17 6 3 7 10 11 16 9 7 -1 10 2 6 8 -8 13 3 30 18 29 9
0 9 -2 1 -5z"/>
<path d="M3903 4495 c0 -8 7 -15 15 -15 12 0 12 3 2 15 -7 8 -13 15 -15 15 -1
0 -2 -7 -2 -15z"/>
<path d="M1797 4455 c-10 -7 -29 -28 -42 -45 -22 -30 -22 -33 -9 -83 7 -28 18
-53 24 -55 15 -5 12 -22 -5 -22 -8 0 -19 -9 -25 -20 -6 -11 -22 -31 -35 -44
-33 -33 -32 -62 0 -70 14 -4 23 -11 19 -17 -7 -12 25 -51 37 -43 5 3 20 -3 34
-12 26 -17 56 -13 54 8 0 9 -2 9 -5 2 -6 -13 -44 -7 -44 7 0 8 29 13 57 10 7
-1 15 11 19 26 3 15 9 40 14 54 4 14 4 32 0 40 -5 7 -6 17 -3 22 3 5 0 13 -7
17 -9 6 -9 13 -1 28 6 11 11 34 11 49 0 16 5 34 11 40 8 8 5 14 -10 22 -12 7
-21 22 -21 36 0 13 -5 27 -11 30 -6 4 -8 13 -5 21 7 19 -33 18 -57 -1z m7
-328 c22 -16 11 -47 -18 -47 -35 0 -49 20 -29 42 19 21 24 22 47 5z"/>
<path d="M805 4450 c-4 -6 -12 -7 -18 -3 -9 5 -9 3 -1 -8 5 -8 9 -20 8 -26 -1
-7 -2 -20 -3 -29 0 -8 -6 -12 -11 -9 -6 4 -7 12 -4 18 4 7 -4 2 -18 -11 -13
-12 -28 -19 -33 -15 -4 5 -3 -2 4 -14 6 -12 7 -23 2 -25 -5 -2 -3 -8 4 -15 10
-9 17 -9 31 3 18 14 18 14 0 7 -13 -4 -17 -3 -12 5 4 7 14 12 22 12 8 0 14 5
14 11 0 5 5 7 11 3 9 -5 10 1 5 20 -4 15 -3 25 1 23 5 -3 9 10 9 29 0 37 -1
39 -11 24z m-31 -86 c3 -8 2 -13 -3 -9 -5 3 -11 -1 -14 -7 -2 -7 -8 -10 -12
-6 -4 4 -2 14 5 23 15 19 16 19 24 -1z"/>
<path d="M2155 4450 c-3 -5 -1 -10 4 -10 6 0 11 5 11 10 0 6 -2 10 -4 10 -3 0
-8 -4 -11 -10z"/>
<path d="M3955 4420 c3 -5 14 -10 23 -10 15 0 15 2 2 10 -20 13 -33 13 -25 0z"/>
<path d="M3579 4407 c7 -10 20 -17 27 -17 8 0 14 -7 14 -16 0 -9 5 -14 12 -12
24 8 18 24 -14 38 -18 7 -37 16 -43 18 -5 3 -4 -2 4 -11z"/>
<path d="M3475 4386 c-19 -13 -18 -14 6 -13 17 1 25 7 22 15 -6 15 -5 15 -28
-2z"/>
<path d="M3880 4384 c-24 -13 -24 -13 18 -14 46 0 52 4 24 19 -12 6 -25 5 -42
-5z"/>
<path d="M3785 4370 c3 -5 10 -10 16 -10 5 0 9 5 9 10 0 6 -7 10 -16 10 -8 0
-12 -4 -9 -10z"/>
<path d="M3350 4355 c0 -8 5 -15 10 -15 6 0 10 7 10 15 0 8 -4 15 -10 15 -5 0
-10 -7 -10 -15z"/>
<path d="M1080 4350 c0 -5 5 -10 10 -10 6 0 10 5 10 10 0 6 -4 10 -10 10 -5 0
-10 -4 -10 -10z"/>
<path d="M3315 4310 c3 -5 8 -10 11 -10 2 0 4 5 4 10 0 6 -5 10 -11 10 -5 0
-7 -4 -4 -10z"/>
<path d="M673 4230 c-19 -24 -21 -29 -7 -34 9 -3 12 -2 9 4 -4 6 1 17 9 26 9
8 16 20 16 25 0 13 -2 11 -27 -21z"/>
<path d="M2455 4253 c11 -3 26 -10 33 -15 8 -7 12 -7 12 0 0 12 -25 22 -48 21
-13 -1 -12 -3 3 -6z"/>
<path d="M3760 4201 c0 -10 19 -25 25 -20 1 2 -3 10 -11 17 -8 7 -14 8 -14 3z"/>
<path d="M3800 4152 c0 -12 19 -26 26 -19 2 2 -2 10 -11 17 -9 8 -15 8 -15 2z"/>
<path d="M607 4099 c7 -7 15 -10 18 -7 3 3 -2 9 -12 12 -14 6 -15 5 -6 -5z"/>
<path d="M605 4071 c-3 -5 0 -13 6 -17 7 -4 9 -3 5 4 -3 5 0 13 6 15 9 4 10 6
1 6 -6 1 -14 -3 -18 -8z"/>
<path d="M1898 4063 c7 -3 16 -2 19 1 4 3 -2 6 -13 5 -11 0 -14 -3 -6 -6z"/>
<path d="M4480 4059 c0 -5 5 -7 10 -4 6 3 10 8 10 11 0 2 -4 4 -10 4 -5 0 -10
-5 -10 -11z"/>
<path d="M3855 4020 c3 -5 8 -10 11 -10 2 0 4 5 4 10 0 6 -5 10 -11 10 -5 0
-7 -4 -4 -10z"/>
<path d="M4190 4011 c0 -5 5 -13 10 -16 6 -3 10 -2 10 4 0 5 -4 13 -10 16 -5
3 -10 2 -10 -4z"/>
<path d="M2583 3955 c0 -8 4 -12 9 -9 5 3 6 10 3 15 -9 13 -12 11 -12 -6z"/>
<path d="M4380 3830 c0 -5 5 -10 11 -10 5 0 7 5 4 10 -3 6 -8 10 -11 10 -2 0
-4 -4 -4 -10z"/>
<path d="M3625 3800 c3 -5 8 -10 11 -10 2 0 4 5 4 10 0 6 -5 10 -11 10 -5 0
-7 -4 -4 -10z"/>
<path d="M4334 3765 c5 -20 2 -27 -18 -36 -29 -14 -38 -30 -25 -50 7 -11 9 -9
9 9 0 23 14 30 26 11 4 -7 12 2 21 21 10 25 11 35 2 41 -6 4 -8 12 -5 18 4 6
2 11 -4 11 -8 0 -10 -9 -6 -25z"/>
<path d="M4365 3780 c-3 -5 -1 -10 4 -10 6 0 11 5 11 10 0 6 -2 10 -4 10 -3 0
-8 -4 -11 -10z"/>
<path d="M941 3744 c0 -11 3 -14 6 -6 3 7 2 16 -1 19 -3 4 -6 -2 -5 -13z"/>
<path d="M3348 3733 c7 -3 16 -2 19 1 4 3 -2 6 -13 5 -11 0 -14 -3 -6 -6z"/>
<path d="M948 3650 c-3 -30 -3 -82 1 -115 4 -33 2 -70 -3 -83 -7 -17 -5 -30 7
-52 19 -32 22 -83 7 -158 -8 -45 -6 -56 15 -99 18 -35 25 -65 25 -108 1 -53 2
-58 14 -42 9 12 16 14 21 8 10 -18 21 -13 36 17 7 15 15 30 17 34 2 3 -6 4
-17 1 -15 -4 -21 -1 -21 12 0 14 3 15 13 6 11 -8 18 -7 30 7 14 15 15 25 3 80
-7 34 -21 71 -31 82 -14 15 -19 34 -17 68 4 98 1 137 -13 159 -8 12 -14 32
-14 45 2 34 -13 139 -23 167 -7 18 -11 21 -22 12 -11 -9 -15 -9 -18 1 -3 7 -7
-12 -10 -42z m127 -540 c-17 -19 -35 -19 -35 2 0 5 7 8 15 4 8 -3 15 -1 15 4
0 6 5 10 12 10 6 0 3 -8 -7 -20z"/>
<path d="M4011 3654 c0 -11 3 -14 6 -6 3 7 2 16 -1 19 -3 4 -6 -2 -5 -13z"/>
<path d="M4297 3615 c-16 -33 -16 -35 2 -35 20 0 31 18 31 51 0 30 -15 23 -33
-16z"/>
<path d="M4221 3584 c0 -11 3 -14 6 -6 3 7 2 16 -1 19 -3 4 -6 -2 -5 -13z"/>
<path d="M4331 3584 c0 -11 3 -14 6 -6 3 7 2 16 -1 19 -3 4 -6 -2 -5 -13z"/>
<path d="M4163 3523 c-18 -7 -16 -33 1 -33 9 0 14 9 13 20 -1 11 -1 20 -2 19
0 0 -6 -3 -12 -6z"/>
<path d="M4325 3430 c-3 -5 -1 -10 4 -10 6 0 11 5 11 10 0 6 -2 10 -4 10 -3 0
-8 -4 -11 -10z"/>
<path d="M4296 3372 c-3 -5 1 -9 9 -9 8 0 12 4 9 9 -3 4 -7 8 -9 8 -2 0 -6 -4
-9 -8z"/>
<path d="M3822 3325 c3 -14 1 -28 -3 -31 -8 -5 -2 -52 8 -63 7 -9 38 44 35 62
-2 9 1 17 6 17 6 0 8 9 5 20 -4 13 -14 20 -30 20 -22 0 -25 -4 -21 -25z"/>
<path d="M4358 3293 c7 -3 16 -2 19 1 4 3 -2 6 -13 5 -11 0 -14 -3 -6 -6z"/>
<path d="M3690 3254 c0 -8 5 -12 10 -9 6 4 8 11 5 16 -9 14 -15 11 -15 -7z"/>
<path d="M3720 3260 c0 -5 5 -10 11 -10 5 0 7 5 4 10 -3 6 -8 10 -11 10 -2 0
-4 -4 -4 -10z"/>
<path d="M2370 3160 c-8 -5 -12 -11 -9 -14 3 -3 14 1 25 9 21 16 8 20 -16 5z"/>
<path d="M2529 3158 c0 -2 -2 -11 -4 -21 -5 -29 -15 -33 -22 -9 -3 12 -9 22
-14 22 -5 0 -4 -12 2 -27 6 -17 6 -30 0 -36 -11 -11 -3 -39 9 -32 5 3 6 -4 3
-15 -4 -15 0 -20 16 -20 12 0 21 6 21 15 0 8 -5 15 -11 15 -6 0 -9 6 -6 13 2
6 10 11 17 9 7 -2 10 3 7 12 -4 9 -1 18 4 22 7 4 7 10 0 17 -15 15 -14 30 1
21 7 -4 8 -3 4 4 -6 10 -25 17 -27 10z"/>
<path d="M3948 3108 c-7 -19 2 -38 18 -38 15 0 17 9 8 34 -7 19 -20 21 -26 4z"/>
<path d="M4010 3090 c0 -5 5 -10 10 -10 6 0 10 5 10 10 0 6 -4 10 -10 10 -5 0
-10 -4 -10 -10z"/>
<path d="M1125 3001 c-3 -5 -1 -12 5 -16 5 -3 10 1 10 9 0 18 -6 21 -15 7z"/>
<path d="M3250 2979 c0 -5 5 -7 10 -4 6 3 10 8 10 11 0 2 -4 4 -10 4 -5 0 -10
-5 -10 -11z"/>
<path d="M2437 2959 c7 -7 15 -10 18 -7 3 3 -2 9 -12 12 -14 6 -15 5 -6 -5z"/>
<path d="M1091 2891 c-11 -7 -10 -13 5 -35 22 -30 44 -34 44 -7 0 45 -19 61
-49 42z"/>
<path d="M3974 2775 c-19 -15 -19 -15 0 -30 10 -8 23 -12 29 -8 5 3 13 0 17
-7 5 -8 18 -10 39 -5 52 11 35 45 -23 45 -12 0 -27 5 -32 10 -7 7 -17 5 -30
-5z"/>
<path d="M2674 2756 c-1 -19 2 -23 15 -19 9 3 0 -5 -19 -18 -19 -13 -41 -22
-47 -21 -20 4 -15 -16 6 -28 40 -21 110 9 88 37 -5 7 -6 24 -3 38 4 14 2 25
-3 25 -5 0 -15 2 -23 5 -8 3 -13 -3 -14 -19z"/>
<path d="M4101 2718 c0 -21 -6 -38 -12 -38 -5 0 -7 -5 -3 -11 3 -6 15 -8 26
-6 15 4 18 1 13 -14 -7 -22 10 -26 19 -4 3 8 -1 20 -8 27 -7 7 -11 19 -8 26 2
6 -1 12 -6 12 -6 0 -13 10 -15 23 -3 13 -5 8 -6 -15z"/>
<path d="M2745 2710 c3 -5 8 -10 11 -10 2 0 4 5 4 10 0 6 -5 10 -11 10 -5 0
-7 -4 -4 -10z"/>
<path d="M4040 2690 c19 -13 30 -13 30 0 0 6 -10 10 -22 10 -19 0 -20 -2 -8
-10z"/>
<path d="M3955 2674 c-20 -21 -13 -29 13 -15 11 6 23 7 28 3 5 -4 2 1 -5 11
-16 21 -16 21 -36 1z"/>
<path d="M2750 2665 c-10 -12 -10 -18 0 -30 15 -18 23 -13 25 16 2 26 -10 33
-25 14z"/>
<path d="M3045 2650 c-3 -5 -1 -10 4 -10 6 0 11 5 11 10 0 6 -2 10 -4 10 -3 0
-8 -4 -11 -10z"/>
<path d="M2600 2629 c0 -5 5 -7 10 -4 6 3 10 8 10 11 0 2 -4 4 -10 4 -5 0 -10
-5 -10 -11z"/>
<path d="M2630 2630 c0 -11 34 -37 56 -44 15 -5 24 -2 28 9 3 9 10 13 16 10 5
-3 10 1 10 9 0 9 -4 16 -9 16 -5 0 -17 3 -26 7 -14 5 -16 2 -10 -17 5 -15 4
-20 -4 -16 -6 4 -11 13 -11 20 0 6 -11 12 -25 12 -14 0 -25 -3 -25 -6z"/>
<path d="M4036 2625 c-3 -9 0 -15 9 -15 9 0 12 6 9 15 -4 8 -7 15 -9 15 -2 0
-5 -7 -9 -15z"/>
<path d="M3031 2621 c-18 -11 -22 -51 -6 -51 21 0 25 13 7 27 -16 12 -16 13 1
7 11 -4 17 -1 17 10 0 19 0 19 -19 7z"/>
<path d="M2524 2592 c-15 -10 -25 -42 -14 -42 6 0 10 5 10 10 0 6 6 10 14 10
8 0 18 5 22 12 4 6 3 8 -4 4 -5 -3 -12 -2 -14 4 -1 5 -8 6 -14 2z"/>
<path d="M2616 2525 c16 -24 34 -32 47 -19 7 8 -36 44 -52 44 -7 0 -5 -10 5
-25z"/>
<path d="M2961 2516 c-13 -15 -11 -15 54 -6 6 1 1 5 -10 10 -28 12 -31 12 -44
-4z"/>
<path d="M4005 2520 c-8 -13 5 -13 25 0 13 8 13 10 -2 10 -9 0 -20 -4 -23 -10z"/>
<path d="M4054 2521 c4 -5 0 -12 -6 -14 -8 -3 -6 -6 5 -6 9 -1 17 6 17 14 0 8
-5 15 -11 15 -5 0 -8 -4 -5 -9z"/>
<path d="M2897 2474 c5 -13 2 -15 -18 -9 -23 7 -23 7 -4 -8 15 -11 22 -12 27
-4 11 17 10 37 -2 37 -5 0 -7 -7 -3 -16z"/>
<path d="M3835 2460 c3 -5 8 -10 11 -10 2 0 4 5 4 10 0 6 -5 10 -11 10 -5 0
-7 -4 -4 -10z"/>
<path d="M2886 2425 c-15 -8 -38 -15 -49 -15 -20 0 -20 -1 -4 -17 37 -37 117
-12 101 31 -8 20 -12 20 -48 1z"/>
<path d="M3735 2424 l-30 -14 30 6 c31 6 41 11 34 18 -2 2 -17 -2 -34 -10z"/>
<path d="M3872 2411 c2 -7 7 -12 11 -12 12 1 9 15 -3 20 -7 2 -11 -2 -8 -8z"/>
<path d="M2608 2393 c-10 -2 -18 -9 -18 -15 0 -5 -6 -8 -13 -5 -22 8 -41 -7
-25 -20 25 -21 83 -20 92 2 6 16 -2 46 -13 44 -3 -1 -14 -3 -23 -6z"/>
<path d="M2820 2339 c0 -5 5 -7 10 -4 6 3 10 8 10 11 0 2 -4 4 -10 4 -5 0 -10
-5 -10 -11z"/>
<path d="M3043 2316 c3 -8 1 -18 -4 -23 -7 -7 -3 -12 10 -16 23 -6 38 8 21 18
-7 5 -8 11 -1 19 7 8 4 12 -10 13 -13 1 -19 -3 -16 -11z"/>
<path d="M2390 2311 c0 -14 18 -23 31 -15 8 4 7 9 -2 15 -18 11 -29 11 -29 0z"/>
<path d="M2530 2310 c-12 -8 -10 -10 8 -10 13 0 20 4 17 10 -7 12 -6 12 -25 0z"/>
<path d="M2570 2309 c0 -10 28 -37 51 -49 10 -6 19 -18 19 -26 0 -8 5 -12 10
-9 14 9 2 47 -18 59 -11 6 -11 10 -2 16 7 5 -2 9 -24 12 -20 2 -36 1 -36 -3z"/>
<path d="M2727 2291 c-3 -12 -1 -24 4 -27 5 -3 9 0 9 5 0 6 6 11 14 11 20 0
29 17 15 26 -8 4 -9 3 -5 -4 9 -15 -6 -16 -21 -1 -7 7 -12 4 -16 -10z"/>
<path d="M2165 2270 c4 -6 11 -8 16 -5 14 9 11 15 -7 15 -8 0 -12 -5 -9 -10z"/>
<path d="M2478 2253 c7 -3 16 -2 19 1 4 3 -2 6 -13 5 -11 0 -14 -3 -6 -6z"/>
<path d="M2837 2241 c5 -21 29 -35 44 -25 6 3 0 14 -12 25 -28 24 -38 24 -32
0z"/>
<path d="M3095 2250 c11 -5 14 -9 8 -9 -7 -1 -13 -6 -13 -12 0 -8 4 -9 13 0 8
6 18 7 23 3 4 -4 2 1 -5 11 -7 9 -21 17 -30 16 -12 0 -11 -2 4 -9z"/>
<path d="M3700 2245 c0 -8 2 -15 4 -15 2 0 11 -3 20 -6 23 -9 20 13 -4 26 -16
9 -20 8 -20 -5z"/>
<path d="M2552 2213 c3 -20 17 -33 35 -33 17 0 6 23 -18 38 -17 11 -20 11 -17
-5z"/>
<path d="M2775 2220 c-3 -5 -1 -10 4 -10 6 0 11 5 11 10 0 6 -2 10 -4 10 -3 0
-8 -4 -11 -10z"/>
<path d="M3285 2219 c3 -3 -4 -9 -15 -12 -11 -3 -20 -1 -20 4 0 5 -10 5 -22 0
-13 -4 -29 -6 -35 -4 -7 3 -13 0 -13 -5 0 -6 15 -9 35 -6 22 3 35 0 35 -7 0
-8 4 -8 13 -1 12 10 18 12 37 12 6 0 10 6 10 13 0 8 -7 14 -15 14 -8 0 -12 -4
-10 -8z"/>
<path d="M2235 2211 c19 -8 19 -8 -4 -16 -16 -5 -20 -10 -11 -15 13 -8 -39
-30 -74 -30 -16 0 -18 -2 -7 -9 10 -7 10 -10 1 -13 -7 -2 16 -4 51 -3 76 1
101 11 74 32 -18 12 -17 13 7 13 15 0 34 3 44 7 13 5 6 10 -27 24 -24 10 -51
18 -59 18 -9 0 -7 -3 5 -8z"/>
<path d="M2677 2185 c-25 -32 -26 -35 -8 -35 33 0 51 11 51 31 0 11 7 19 18
19 14 0 15 2 2 10 -24 16 -33 12 -63 -25z"/>
<path d="M3624 2213 c-14 -3 -25 -16 -32 -40 -14 -46 -6 -55 18 -23 12 16 15
27 8 31 -6 4 1 13 18 23 29 15 27 17 -12 9z"/>
<path d="M3752 2213 c-6 -2 -9 -9 -6 -15 4 -6 10 -5 15 3 7 11 9 10 9 -3 0 -9
4 -20 10 -23 6 -4 9 5 8 19 -2 25 -10 30 -36 19z"/>
<path d="M2950 2199 c0 -5 5 -7 10 -4 6 3 10 8 10 11 0 2 -4 4 -10 4 -5 0 -10
-5 -10 -11z"/>
<path d="M3393 2203 c-18 -6 -16 -33 1 -33 8 0 17 4 20 8 7 12 -7 30 -21 25z"/>
<path d="M3533 2173 c-30 -31 -29 -35 9 -31 23 2 32 9 34 25 5 30 -17 33 -43
6z"/>
<path d="M2418 2182 c-10 -2 -18 -10 -18 -18 0 -8 -7 -17 -15 -20 -21 -9 -19
-24 4 -24 32 0 51 11 51 30 0 10 8 20 18 22 15 3 14 4 -3 9 -11 3 -28 3 -37 1z"/>
<path d="M3308 2183 c-16 -4 -22 -15 -15 -28 4 -8 -38 -33 -47 -28 -5 4 -6 1
-2 -5 17 -28 86 -5 86 28 0 11 5 20 11 20 5 0 7 5 4 10 -6 10 -9 11 -37 3z"/>
<path d="M3650 2180 c-8 -5 -10 -10 -5 -10 6 0 3 -5 -5 -11 -11 -8 -9 -9 10
-3 41 11 70 23 70 29 0 9 -54 5 -70 -5z"/>
<path d="M3170 2151 c0 -14 18 -23 31 -15 8 4 7 9 -2 15 -18 11 -29 11 -29 0z"/>
<path d="M1967 2138 c4 -7 8 -16 8 -20 0 -3 3 -9 7 -13 3 -4 5 1 3 12 -2 10
-4 21 -4 26 -1 4 -6 7 -12 7 -6 0 -7 -5 -2 -12z"/>
<path d="M2000 2126 c0 -9 5 -16 10 -16 6 0 10 4 10 9 0 6 -4 13 -10 16 -5 3
-10 -1 -10 -9z"/>
<path d="M2674 2112 c9 -9 25 -11 50 -7 47 9 40 17 -18 18 -38 2 -43 0 -32
-11z"/>
<path d="M3600 2111 c0 -17 26 -24 56 -17 33 9 26 17 -20 23 -23 3 -36 0 -36
-6z"/>
<path d="M2268 2093 c6 -2 18 -2 25 0 6 3 1 5 -13 5 -14 0 -19 -2 -12 -5z"/>
<path d="M1736 2076 c3 -9 17 -16 30 -16 24 0 35 16 12 17 -7 0 -21 4 -31 8
-13 6 -16 3 -11 -9z"/>
<path d="M2008 2083 c-10 -2 -18 -9 -18 -14 0 -5 -7 -9 -15 -9 -8 0 -15 -9
-15 -20 0 -10 -9 -24 -21 -31 -15 -7 -20 -18 -17 -34 4 -18 1 -22 -11 -17 -14
5 -14 3 -3 -10 10 -13 11 -22 3 -37 -15 -27 -14 -34 5 -27 8 3 12 2 9 -4 -3
-6 -1 -10 5 -10 6 0 9 -4 5 -9 -3 -5 -1 -12 5 -16 6 -4 7 -11 4 -17 -4 -6 -1
-9 7 -6 8 3 14 10 14 15 0 6 3 15 8 19 4 4 7 2 7 -4 0 -6 8 -13 18 -15 13 -4
11 -5 -5 -6 -13 0 -23 -5 -23 -11 0 -15 16 -12 57 10 21 11 43 20 50 20 7 0
13 5 13 10 0 6 7 10 15 10 8 0 15 -7 15 -15 0 -8 5 -15 11 -15 5 0 7 5 4 11
-4 6 0 9 9 7 21 -4 77 34 72 49 -5 13 25 43 42 43 7 0 12 -4 12 -10 0 -5 5
-10 12 -10 9 0 9 3 0 12 -19 19 -14 25 29 32 35 6 69 25 69 39 0 2 -15 4 -32
5 -48 2 -68 5 -68 10 0 3 8 11 18 18 16 12 15 13 -6 14 -13 0 -20 4 -17 10 4
6 -6 10 -24 10 -16 0 -32 -6 -34 -12 -4 -10 -6 -10 -6 0 -1 14 -47 17 -56 2
-3 -5 -12 -7 -20 -4 -8 4 -18 -1 -21 -10 -7 -19 -34 -22 -34 -3 0 9 -2 9 -8
-1 -10 -15 -77 -52 -94 -52 -7 0 -2 6 12 13 14 7 25 18 25 24 0 20 16 28 25
13 8 -13 10 -13 10 2 0 10 13 20 38 26 l37 10 -50 0 c-27 0 -58 -2 -67 -5z
m257 -43 c-3 -5 -14 -10 -23 -10 -15 0 -15 2 -2 10 20 13 33 13 25 0z m-98
-16 c-3 -3 -12 -4 -19 -1 -8 3 -5 6 6 6 11 1 17 -2 13 -5z m141 -39 c-3 -3 -9
2 -12 12 -6 14 -5 15 5 6 7 -7 10 -15 7 -18z m-39 6 c9 -6 10 -11 2 -15 -13
-8 -31 1 -31 15 0 11 11 11 29 0z m-78 -61 c-13 -11 -35 -20 -49 -20 -32 0
-24 9 14 16 16 3 33 9 39 15 5 5 11 9 15 9 3 -1 -6 -10 -19 -20z m-161 -40
c18 -12 2 -12 -25 0 -13 6 -15 9 -5 9 8 0 22 -4 30 -9z"/>
<path d="M2440 2080 c12 -8 12 -10 1 -10 -8 0 -12 -2 -10 -5 3 -2 15 -2 27 2
27 7 19 23 -11 23 -18 0 -19 -2 -7 -10z"/>
<path d="M3290 2080 c-13 -9 -13 -10 0 -11 29 -2 75 3 88 10 8 5 -5 8 -30 9
-24 1 -50 -3 -58 -8z"/>
<path d="M3650 2069 c0 -5 5 -7 10 -4 6 3 10 8 10 11 0 2 -4 4 -10 4 -5 0 -10
-5 -10 -11z"/>
<path d="M3760 2060 c8 -5 22 -9 30 -9 10 0 8 3 -5 9 -27 12 -43 12 -25 0z"/>
<path d="M4103 2051 c-12 -11 -25 -17 -29 -13 -5 4 -2 -1 5 -10 7 -10 10 -18
7 -18 -4 0 -2 -8 3 -19 9 -16 7 -17 -15 -13 -20 4 -23 1 -17 -13 4 -13 3 -16
-5 -11 -14 9 -15 -3 -2 -24 7 -11 10 -11 10 -2 0 7 5 10 10 7 6 -3 10 -2 10 4
0 5 9 12 19 16 21 6 35 42 20 51 -5 3 -9 12 -9 21 0 9 3 13 7 10 7 -8 33 11
33 24 0 15 -25 10 -47 -10z"/>
<path d="M3717 2054 c-8 -8 1 -24 14 -24 5 0 9 7 9 15 0 15 -12 20 -23 9z"/>
<path d="M3620 2040 c-23 -15 2 -35 27 -21 17 10 17 10 0 11 -10 0 -15 5 -12
10 8 12 4 12 -15 0z"/>
<path d="M2480 2019 c-17 -5 -19 -7 -7 -8 24 -1 11 -21 -14 -21 -14 0 -18 -4
-12 -12 4 -7 8 -16 9 -20 1 -5 2 -10 3 -12 3 -9 115 21 119 32 3 9 -4 11 -23
8 -22 -4 -25 -2 -20 13 7 22 -18 31 -55 20z m27 -31 c-3 -8 -6 -5 -6 6 -1 11
2 17 5 13 3 -3 4 -12 1 -19z"/>
<path d="M3180 2026 c0 -2 8 -10 18 -17 15 -13 16 -12 3 4 -13 16 -21 21 -21
13z"/>
<path d="M3550 2010 c0 -5 9 -10 19 -10 11 0 23 5 26 10 4 6 -5 10 -19 10 -14
0 -26 -4 -26 -10z"/>
<path d="M2415 2000 c-3 -5 -1 -10 4 -10 6 0 11 5 11 10 0 6 -2 10 -4 10 -3 0
-8 -4 -11 -10z"/>
<path d="M3056 1985 c-16 -12 -17 -15 -4 -15 8 0 21 7 28 15 16 19 1 19 -24 0z"/>
<path d="M2740 1970 c0 -5 7 -7 15 -4 8 4 15 8 15 10 0 2 -7 4 -15 4 -8 0 -15
-4 -15 -10z"/>
<path d="M3595 1950 c3 -5 8 -10 11 -10 2 0 4 5 4 10 0 6 -5 10 -11 10 -5 0
-7 -4 -4 -10z"/>
<path d="M2944 1935 c3 -9 -3 -19 -14 -25 -11 -6 -20 -17 -20 -25 0 -22 98 -8
130 18 l25 20 -39 -7 c-34 -7 -38 -5 -28 7 15 18 6 27 -31 27 -22 0 -28 -4
-23 -15z"/>
<path d="M3478 1916 c-15 -11 -15 -13 3 -24 10 -7 26 -12 35 -12 13 0 14 -3 4
-15 -9 -10 -9 -15 -1 -15 6 0 11 3 12 8 6 57 3 67 -17 68 -11 1 -27 -4 -36
-10z"/>
<path d="M3555 1919 c-11 -17 0 -20 21 -4 17 13 17 14 2 15 -9 0 -20 -5 -23
-11z"/>
<path d="M3625 1920 c-8 -13 5 -13 25 0 13 8 13 10 -2 10 -9 0 -20 -4 -23 -10z"/>
<path d="M3825 1910 c3 -5 13 -10 21 -10 8 0 12 5 9 10 -3 6 -13 10 -21 10 -8
0 -12 -4 -9 -10z"/>
<path d="M4071 1911 c-8 -5 -9 -11 -3 -15 5 -3 15 1 22 9 14 16 3 20 -19 6z"/>
<path d="M3714 1886 c-10 -8 -16 -17 -12 -21 8 -8 48 13 48 25 0 14 -13 12
-36 -4z"/>
<path d="M3430 1859 c0 -5 7 -9 15 -9 8 0 15 -4 15 -10 0 -5 4 -10 10 -10 5 0
7 6 4 14 -6 16 -44 29 -44 15z"/>
<path d="M3620 1850 c-13 -8 -12 -10 3 -10 9 0 17 5 17 10 0 12 -1 12 -20 0z"/>
<path d="M951 1814 c0 -11 3 -14 6 -6 3 7 2 16 -1 19 -3 4 -6 -2 -5 -13z"/>
<path d="M3670 1790 c-6 -11 -9 -20 -7 -20 2 0 14 9 27 20 18 16 19 20 7 20
-9 0 -21 -9 -27 -20z"/>
<path d="M1040 1767 c0 -16 37 -39 45 -28 6 10 -21 41 -36 41 -5 0 -9 -6 -9
-13z"/>
<path d="M3775 1740 c-3 -5 -1 -10 4 -10 6 0 11 5 11 10 0 6 -2 10 -4 10 -3 0
-8 -4 -11 -10z"/>
<path d="M3355 1670 c-3 -6 1 -7 9 -4 18 7 21 14 7 14 -6 0 -13 -4 -16 -10z"/>
<path d="M2165 1620 c4 -6 11 -8 16 -5 14 9 11 15 -7 15 -8 0 -12 -5 -9 -10z"/>
<path d="M830 1581 c0 -6 4 -13 10 -16 6 -3 7 1 4 9 -7 18 -14 21 -14 7z"/>
<path d="M3417 1523 c-10 -9 -9 -23 2 -23 5 0 11 7 15 15 5 15 -5 20 -17 8z"/>
<path d="M1110 1501 c0 -5 5 -13 10 -16 6 -3 10 -2 10 4 0 5 -4 13 -10 16 -5
3 -10 2 -10 -4z"/>
<path d="M3445 1450 c3 -5 8 -10 11 -10 2 0 4 5 4 10 0 6 -5 10 -11 10 -5 0
-7 -4 -4 -10z"/>
<path d="M1176 1442 c-3 -6 -1 -14 5 -17 15 -10 25 3 12 16 -7 7 -13 7 -17 1z"/>
<path d="M1408 1438 c5 -5 16 -8 23 -6 8 3 3 7 -10 11 -17 4 -21 3 -13 -5z"/>
<path d="M1116 1391 c-3 -5 1 -11 9 -14 9 -4 12 -1 8 9 -6 16 -10 17 -17 5z"/>
<path d="M1390 1381 c0 -5 7 -12 16 -15 8 -3 12 -11 8 -17 -4 -8 -3 -9 4 -5 9
5 8 12 -1 26 -12 21 -27 26 -27 11z"/>
<path d="M1166 1314 c-5 -16 -12 -21 -29 -17 -16 4 -19 3 -11 -6 13 -14 52
-23 57 -13 2 4 1 18 -3 32 -6 24 -7 24 -14 4z"/>
<path d="M1009 1258 c0 -7 -3 -25 -5 -39 -3 -18 6 -37 32 -68 20 -23 37 -55
39 -70 1 -15 12 -38 23 -49 12 -12 22 -26 22 -32 0 -5 7 -10 15 -10 12 0 13 4
6 18 -6 11 -5 20 3 27 17 14 36 17 36 4 0 -5 5 -7 10 -4 6 4 22 -1 36 -10 13
-9 28 -13 33 -11 5 3 16 -6 25 -19 9 -14 21 -23 26 -20 6 4 3 16 -6 30 -12 18
-13 28 -5 44 15 27 13 72 -3 94 -12 15 -18 17 -36 7 -17 -9 -25 -9 -38 3 -12
11 -22 13 -35 6 -13 -8 -17 -6 -17 6 0 8 -9 23 -20 32 -11 10 -20 24 -20 33 0
9 -3 11 -8 5 -4 -5 -13 -10 -19 -11 -7 -1 -22 -2 -32 -2 -14 -2 -18 -7 -14
-23 6 -21 5 -21 -20 -4 -29 18 -27 35 3 35 13 0 17 5 13 20 -6 22 -42 28 -44
8z m141 -168 c0 -5 -5 -10 -11 -10 -5 0 -7 5 -4 10 3 6 8 10 11 10 2 0 4 -4 4
-10z"/>
<path d="M1165 1245 c2 -11 4 -23 4 -27 1 -11 21 -10 21 0 0 5 -6 17 -14 28
-15 19 -15 19 -11 -1z"/>
<path d="M3926 1237 c3 -10 9 -15 12 -12 3 3 0 11 -7 18 -10 9 -11 8 -5 -6z"/>
<path d="M4015 1230 c-3 -5 1 -10 10 -10 9 0 13 5 10 10 -3 6 -8 10 -10 10 -2
0 -7 -4 -10 -10z"/>
<path d="M3283 1223 c19 -5 23 -19 5 -25 -6 -2 -8 -10 -4 -16 9 -14 56 -16 56
-2 0 6 -4 10 -9 10 -5 0 -13 9 -16 20 -4 13 -14 20 -28 19 -17 -1 -18 -2 -4
-6z"/>
<path d="M3234 1204 c3 -9 6 -18 6 -20 0 -2 7 -4 15 -4 20 0 19 26 -1 34 -24
9 -27 8 -20 -10z"/>
<path d="M3188 1163 c7 -3 16 -2 19 1 4 3 -2 6 -13 5 -11 0 -14 -3 -6 -6z"/>
<path d="M3818 1153 c7 -3 16 -2 19 1 4 3 -2 6 -13 5 -11 0 -14 -3 -6 -6z"/>
<path d="M4130 1066 c0 -2 7 -6 15 -10 8 -3 15 -1 15 4 0 6 -7 10 -15 10 -8 0
-15 -2 -15 -4z"/>
<path d="M1538 913 c7 -3 16 -2 19 1 4 3 -2 6 -13 5 -11 0 -14 -3 -6 -6z"/>
<path d="M1245 840 c3 -5 13 -10 21 -10 8 0 14 -7 14 -15 0 -8 7 -15 15 -15
21 0 19 9 -7 31 -24 19 -53 26 -43 9z"/>
<path d="M1454 825 c10 -8 23 -12 27 -9 4 2 6 -5 4 -16 -3 -13 2 -23 13 -27 9
-3 25 -13 35 -21 15 -14 17 -13 17 6 0 14 -5 20 -14 16 -8 -3 -19 3 -26 15 -6
12 -8 21 -4 21 3 0 1 7 -6 15 -7 8 -24 15 -39 15 -25 -1 -25 -1 -7 -15z"/>
<path d="M1328 817 c-9 -6 -8 -7 4 -3 11 3 21 -2 27 -12 11 -20 24 -12 16 10
-7 17 -28 19 -47 5z"/>
<path d="M1415 780 c-4 -6 -5 -12 -4 -14 2 -1 23 -15 47 -30 41 -28 70 -31 37
-5 -9 8 -25 22 -36 32 -10 9 -19 14 -19 10 0 -5 -4 -2 -9 6 -6 10 -10 10 -16
1z"/>
<path d="M1312 707 c7 -7 22 -16 33 -20 16 -6 15 -3 -5 13 -28 22 -49 27 -28
7z"/>
<path d="M1370 680 c0 -13 38 -32 51 -25 5 4 21 0 34 -9 28 -18 35 -20 35 -7
0 4 -25 18 -56 30 -64 24 -64 24 -64 11z"/>
<path d="M1540 674 c0 -4 7 -16 17 -26 18 -20 10 -39 -9 -20 -7 7 -16 12 -22
12 -5 0 5 -11 24 -25 19 -14 28 -25 21 -25 -7 0 -26 9 -41 20 -21 15 -29 17
-33 7 -3 -8 3 -14 14 -14 21 -2 55 -23 59 -37 1 -5 -4 -13 -12 -18 -10 -7 -9
-8 5 -4 9 3 17 0 17 -6 0 -8 4 -8 13 1 10 11 10 14 0 18 -7 3 -13 12 -13 21 0
12 3 13 12 4 7 -7 17 -12 23 -12 5 0 1 7 -9 15 -24 18 -29 55 -7 55 18 0 1 20
-20 23 -8 2 -20 6 -26 10 -7 5 -13 5 -13 1z"/>
<path d="M1703 596 c0 -8 5 -14 11 -13 5 1 12 -6 14 -16 3 -16 1 -17 -17 -5
-12 7 -21 18 -21 25 0 7 -5 13 -11 13 -5 0 -7 -6 -3 -12 6 -10 4 -10 -7 0 -7
6 -19 12 -26 12 -26 0 -12 -18 31 -41 25 -13 43 -26 41 -29 -6 -9 28 -6 43 4
7 4 16 5 19 2 4 -3 1 -6 -6 -6 -7 0 -9 -4 -6 -10 3 -5 -4 -10 -17 -11 -23 -1
-23 -1 2 -9 44 -14 70 -11 70 8 0 12 3 13 8 5 5 -7 20 -14 35 -15 24 -2 32
-14 28 -40 0 -4 7 -4 16 -1 11 4 13 8 5 11 -14 4 -16 22 -4 22 16 0 52 -37 44
-45 -4 -5 1 -5 10 -2 10 3 20 2 23 -3 4 -6 17 -10 31 -10 13 0 24 -5 24 -11 0
-5 4 -8 9 -5 5 3 14 -1 21 -9 10 -12 10 -18 0 -30 -10 -12 -8 -14 7 -10 10 2
31 10 46 18 l28 15 -27 21 c-15 11 -33 21 -41 21 -8 0 -29 11 -46 24 -18 13
-48 27 -67 32 -19 4 -38 9 -42 10 -5 1 -13 2 -19 3 -5 0 -8 5 -4 10 3 6 17 6
36 -1 52 -18 42 -2 -21 31 -33 18 -68 30 -78 28 -15 -4 -15 -5 2 -6 15 -1 16
-4 7 -15 -9 -11 -9 -14 1 -13 31 1 49 -4 44 -11 -10 -17 -47 -5 -73 24 -16 17
-35 29 -44 27 -9 -2 -22 3 -29 12 -16 19 -47 20 -47 1z m417 -200 c0 -11 -19
-15 -25 -6 -3 5 1 10 9 10 9 0 16 -2 16 -4z"/>
<path d="M1832 479 c2 -6 8 -10 13 -10 5 0 11 4 13 10 2 6 -4 11 -13 11 -9 0
-15 -5 -13 -11z"/>
<path d="M1720 469 c0 -5 5 -7 10 -4 6 3 10 2 10 -4 0 -6 11 -13 25 -17 13 -3
23 -11 22 -16 -1 -6 12 -12 28 -14 27 -3 28 -2 8 6 -13 5 -23 13 -23 18 0 9
-53 42 -69 42 -6 0 -11 -5 -11 -11z"/>
<path d="M1897 419 c7 -7 15 -10 18 -7 3 3 -2 9 -12 12 -14 6 -15 5 -6 -5z"/>
<path d="M1630 410 c0 -5 5 -10 10 -10 6 0 10 5 10 10 0 6 -4 10 -10 10 -5 0
-10 -4 -10 -10z"/>
<path d="M1998 413 c6 -2 10 -9 7 -14 -4 -5 1 -6 9 -3 24 9 19 24 -6 23 -13 0
-17 -3 -10 -6z"/>
<path d="M2270 411 c0 -6 9 -9 19 -8 11 0 17 5 15 9 -7 11 -34 10 -34 -1z"/>
<path d="M2334 385 c17 -17 94 -43 146 -49 34 -4 28 12 -7 18 -40 8 -108 28
-125 37 -26 13 -31 11 -14 -6z"/>
<path d="M1691 381 c-11 -7 -10 -11 7 -20 16 -8 21 -7 26 5 3 9 6 18 6 20 0 7
-24 4 -39 -5z"/>
<path d="M1795 363 c19 -15 18 -15 -18 -10 -30 5 -35 3 -24 -7 7 -7 24 -18 37
-25 22 -11 23 -11 7 2 -16 14 -16 15 4 20 19 5 20 8 9 21 -7 9 -18 16 -24 16
-6 0 -2 -8 9 -17z"/>
<path d="M1925 370 c-4 -6 -14 -9 -22 -6 -12 5 -14 1 -10 -14 4 -17 3 -19 -8
-10 -10 8 -15 8 -20 0 -5 -8 -12 -7 -23 2 -9 7 -5 -1 8 -18 21 -25 26 -28 32
-15 6 13 7 14 7 1 1 -13 2 -13 11 0 8 12 10 12 16 -3 4 -12 13 -16 25 -12 11
4 19 2 19 -4 0 -6 4 -11 9 -11 5 0 7 10 3 22 -4 18 -2 20 16 16 14 -4 20 -2
16 4 -4 6 2 8 17 4 13 -3 18 -3 11 0 -6 3 -10 10 -6 15 3 5 2 9 -3 8 -12 -3
-66 13 -80 23 -7 6 -14 5 -18 -2z"/>
<path d="M2528 328 c5 -5 16 -8 23 -6 8 3 3 7 -10 11 -17 4 -21 3 -13 -5z"/>
<path d="M2160 326 c0 -2 9 -6 20 -9 11 -3 18 -1 14 4 -5 9 -34 13 -34 5z"/>
<path d="M2099 311 c-2 -6 -28 -13 -57 -14 -36 -1 -52 -6 -52 -16 0 -7 6 -11
14 -8 8 3 26 -3 39 -13 25 -20 25 -20 39 2 14 20 15 20 40 4 14 -9 32 -15 39
-14 8 2 13 -3 12 -9 -4 -18 14 -16 20 1 7 18 -1 26 -29 26 -29 0 -55 10 -50
19 3 4 1 13 -3 20 -6 9 -10 10 -12 2z m-35 -47 c3 -8 2 -12 -4 -9 -6 3 -10 10
-10 16 0 14 7 11 14 -7z"/>
<path d="M2598 303 c7 -3 16 -2 19 1 4 3 -2 6 -13 5 -11 0 -14 -3 -6 -6z"/>
<path d="M2240 280 c0 -5 6 -7 14 -4 8 3 16 -2 19 -13 4 -14 5 -14 6 5 1 16
-5 22 -19 22 -11 0 -20 -4 -20 -10z"/>
<path d="M2207 265 c3 -8 9 -12 14 -9 12 7 11 11 -5 17 -10 4 -13 1 -9 -8z"/>
<path d="M3130 240 c0 -5 5 -10 11 -10 5 0 7 5 4 10 -3 6 -8 10 -11 10 -2 0
-4 -4 -4 -10z"/>
<path d="M2085 230 c3 -5 8 -10 11 -10 2 0 4 5 4 10 0 6 -5 10 -11 10 -5 0 -7
-4 -4 -10z"/>
<path d="M3090 210 c-20 -12 -10 -19 14 -10 11 3 15 9 10 13 -6 3 -16 2 -24
-3z"/>
<path d="M3870 4891 c0 -5 7 -15 17 -22 15 -13 15 -12 4 9 -12 23 -21 28 -21
13z"/>
<path d="M4060 4680 c0 -14 -5 -18 -17 -13 -11 4 -14 3 -9 -5 4 -7 2 -12 -3
-12 -6 0 -11 -5 -11 -11 0 -5 5 -7 11 -3 6 3 15 0 20 -7 7 -11 9 -10 9 4 0 10
7 20 15 23 8 4 15 12 15 19 0 7 -7 15 -15 19 -10 4 -15 -1 -15 -14z"/>
<path d="M3989 4625 c-8 -33 -1 -50 20 -53 19 -3 22 0 16 17 -4 14 -2 21 7 22
7 0 4 4 -7 9 -24 10 -35 12 -36 5z"/>
<path d="M3357 2396 c-3 -8 -2 -18 3 -21 13 -8 24 15 12 27 -6 6 -11 4 -15 -6z"/>
<path d="M2223 1433 c-17 -6 -16 -31 1 -49 17 -16 46 -19 46 -3 0 5 5 7 10 4
8 -5 7 -11 -1 -21 -10 -12 -9 -13 5 -8 9 3 16 1 16 -5 0 -6 7 -11 16 -11 15 0
44 -23 44 -34 0 -4 -9 -1 -19 6 -15 9 -23 9 -34 -1 -12 -9 -16 -9 -19 0 -2 7
-11 10 -21 6 -35 -13 -15 -22 51 -22 61 0 67 2 64 19 -3 17 -1 18 12 7 8 -7
24 -10 36 -6 19 6 26 -3 21 -29 -1 -5 5 -3 14 4 13 11 15 10 9 -4 -3 -9 -4
-16 -1 -16 3 0 10 14 16 30 9 28 8 29 -8 20 -21 -11 -31 -4 -31 21 0 9 -7 20
-16 23 -9 3 -14 12 -11 20 4 9 -3 16 -19 19 -19 3 -24 0 -24 -16 0 -17 -5 -19
-32 -13 -17 3 -39 13 -48 21 -9 8 -22 15 -28 15 -7 0 -12 7 -12 15 0 15 -14
18 -37 8z m37 -37 c0 -3 -4 -8 -10 -11 -5 -3 -10 -1 -10 4 0 6 5 11 10 11 6 0
10 -2 10 -4z"/>
<path d="M2395 1291 c-3 -5 -2 -12 3 -15 5 -3 9 1 9 9 0 17 -3 19 -12 6z"/>
<path d="M1650 1231 c0 -6 4 -13 10 -16 6 -3 7 1 4 9 -7 18 -14 21 -14 7z"/>
<path d="M1720 1200 c0 -5 5 -10 11 -10 5 0 7 5 4 10 -3 6 -8 10 -11 10 -2 0
-4 -4 -4 -10z"/>
<path d="M1630 1162 c0 -4 9 -13 20 -19 14 -9 21 -10 26 -1 4 6 3 8 -3 5 -6
-4 -13 0 -17 8 -6 15 -26 21 -26 7z"/>
<path d="M1580 1150 c0 -5 5 -10 11 -10 5 0 7 5 4 10 -3 6 -8 10 -11 10 -2 0
-4 -4 -4 -10z"/>
<path d="M2560 1140 c-12 -9 -10 -11 10 -9 14 1 27 0 30 -1 20 -7 50 -5 47 4
-5 15 -68 19 -87 6z"/>
<path d="M2140 1080 c-9 -6 -10 -10 -3 -10 6 0 15 5 18 10 8 12 4 12 -15 0z"/>
<path d="M2216 1030 c-19 -6 -19 -7 -1 -13 20 -8 29 -4 24 11 -2 5 -13 6 -23
2z"/>
<path d="M1930 995 c0 -2 14 -12 31 -21 22 -11 28 -18 20 -24 -10 -5 -9 -9 2
-13 17 -6 17 8 -1 41 -11 18 -52 33 -52 17z"/>
<path d="M2318 983 c7 -3 16 -2 19 1 4 3 -2 6 -13 5 -11 0 -14 -3 -6 -6z"/>
<path d="M2898 983 c6 -2 18 -2 25 0 6 3 1 5 -13 5 -14 0 -19 -2 -12 -5z"/>
<path d="M2020 965 c-1 -11 -2 -26 -1 -32 1 -7 -6 -13 -16 -13 -20 0 -5 -20
18 -24 8 -1 23 -7 34 -13 21 -11 80 -11 91 0 4 4 -12 9 -35 13 -22 4 -41 11
-41 16 0 11 30 7 64 -7 14 -6 18 -5 14 6 -3 8 -9 14 -14 15 -20 2 -44 17 -39
24 3 5 1 11 -5 15 -5 3 -10 1 -10 -4 0 -19 -48 -12 -53 7 -4 15 -5 14 -7 -3z
m36 -62 c-7 -7 -26 7 -26 19 0 6 6 6 15 -2 9 -7 13 -15 11 -17z"/>
<path d="M2270 966 c0 -2 7 -6 15 -10 8 -3 15 -1 15 4 0 6 -7 10 -15 10 -8 0
-15 -2 -15 -4z"/>
<path d="M2832 954 c-11 -12 -9 -16 10 -23 30 -11 53 5 35 24 -8 8 -14 9 -18
3 -4 -7 -8 -7 -10 0 -2 6 -9 4 -17 -4z"/>
<path d="M2940 960 c0 -5 5 -10 11 -10 5 0 7 5 4 10 -3 6 -8 10 -11 10 -2 0
-4 -4 -4 -10z"/>
<path d="M3088 953 c7 -3 16 -2 19 1 4 3 -2 6 -13 5 -11 0 -14 -3 -6 -6z"/>
<path d="M2698 945 c-3 -3 -30 -10 -59 -16 -110 -20 -112 -21 -98 -30 11 -7 9
-9 -6 -10 l-20 0 20 -8 c25 -10 47 -3 38 13 -3 6 -1 6 8 -1 19 -18 32 -16 25
3 -5 14 -4 15 8 5 8 -7 23 -11 33 -8 14 4 13 5 -4 6 -13 0 -23 5 -23 10 0 6 8
8 18 7 9 -2 35 5 57 15 22 10 33 19 24 19 -9 0 -18 -2 -21 -5z"/>
<path d="M2908 943 c7 -3 16 -2 19 1 4 3 -2 6 -13 5 -11 0 -14 -3 -6 -6z"/>
<path d="M2773 915 c0 -8 6 -16 14 -19 7 -3 13 -2 13 2 0 4 9 8 20 9 11 1 20
-4 20 -12 0 -8 5 -17 10 -20 6 -4 10 5 10 21 0 24 -3 26 -35 22 -19 -2 -35 0
-35 4 0 4 -4 8 -8 8 -5 0 -9 -7 -9 -15z"/>
<path d="M2186 901 c-19 -7 -19 -8 2 -13 12 -4 20 -2 17 2 -3 5 1 11 7 13 7 3
9 5 3 6 -5 0 -19 -4 -29 -8z"/>
<path d="M2290 906 c0 -2 7 -9 15 -16 13 -11 14 -10 9 4 -5 14 -24 23 -24 12z"/>
<path d="M2696 900 c-16 -5 -16 -7 -2 -19 14 -11 16 -11 16 2 0 18 29 12 42
-7 5 -7 8 -5 8 5 0 18 -36 29 -64 19z"/>
<path d="M3158 881 c-20 -10 -40 -16 -44 -12 -4 3 -4 0 0 -6 9 -15 -10 -18
-19 -3 -4 6 -11 7 -17 4 -6 -4 -27 -7 -46 -8 -19 -1 -37 -5 -39 -11 -5 -15
168 -8 195 9 6 4 17 4 22 1 6 -3 10 -1 10 5 0 6 -8 14 -17 17 -15 6 -15 7 3
14 12 5 14 8 4 8 -8 0 -32 -8 -52 -18z"/>
<path d="M2781 879 c18 -11 52 -11 45 0 -3 5 -17 9 -32 9 -18 0 -22 -3 -13 -9z"/>
<path d="M2905 866 c17 -12 12 -13 -42 -11 -33 1 -65 5 -71 9 -6 3 -14 2 -17
-4 -4 -6 -15 -8 -24 -5 -11 3 -24 -2 -32 -11 -13 -16 -11 -17 14 -10 17 4 27
2 27 -5 0 -6 6 -9 13 -6 6 2 11 11 9 18 -2 8 7 4 21 -9 17 -16 32 -21 51 -18
14 3 24 1 21 -4 -8 -14 9 -20 25 -9 12 8 12 12 3 16 -7 2 -13 10 -13 16 0 5 3
7 6 4 4 -3 15 -2 26 4 19 10 19 11 1 24 -10 8 -22 15 -27 15 -6 0 -1 -6 9 -14z"/>
<path d="M2532 855 c1 -10 9 -20 16 -21 7 -1 8 0 2 3 -5 2 -8 9 -5 13 3 5 0
12 -6 15 -7 5 -10 1 -7 -10z"/>
<path d="M2570 839 c0 -5 5 -7 10 -4 6 3 10 8 10 11 0 2 -4 4 -10 4 -5 0 -10
-5 -10 -11z"/>
<path d="M2710 752 c0 -5 7 -13 16 -16 19 -7 51 8 36 18 -6 3 -14 2 -17 -4 -5
-8 -11 -7 -21 1 -8 7 -14 7 -14 1z"/>
<path d="M2418 743 c7 -3 16 -2 19 1 4 3 -2 6 -13 5 -11 0 -14 -3 -6 -6z"/>
<path d="M2776 730 c-11 -3 -15 -9 -10 -13 10 -6 42 9 34 16 -3 3 -14 1 -24
-3z"/>
<path d="M3205 730 c3 -5 8 -10 11 -10 2 0 4 5 4 10 0 6 -5 10 -11 10 -5 0 -7
-4 -4 -10z"/>
</g>
</svg>
